<svg viewBox="0 0 330 200" xmlns="http://www.w3.org/2000/svg"><g><g><g><g><g><line x1="40.953999519348145" y1="178.0640001296997" x2="35.953999519348145" y2="178.0640001296997" style="visibility: inherit;" fill="rgb(0, 0, 0)" stroke="rgb(204, 204, 204)" stroke-width="1px"></line><line x1="40.953999519348145" y1="166.19306678771972" x2="35.953999519348145" y2="166.19306678771972" style="visibility: inherit;" fill="rgb(0, 0, 0)" stroke="rgb(204, 204, 204)" stroke-width="1px"></line><line x1="40.953999519348145" y1="154.32213344573975" x2="35.953999519348145" y2="154.32213344573975" style="visibility: inherit;" fill="rgb(0, 0, 0)" stroke="rgb(204, 204, 204)" stroke-width="1px"></line><line x1="40.953999519348145" y1="142.45120010375976" x2="35.953999519348145" y2="142.45120010375976" style="visibility: inherit;" fill="rgb(0, 0, 0)" stroke="rgb(204, 204, 204)" stroke-width="1px"></line><line x1="40.953999519348145" y1="130.5802667617798" x2="35.953999519348145" y2="130.5802667617798" style="visibility: inherit;" fill="rgb(0, 0, 0)" stroke="rgb(204, 204, 204)" stroke-width="1px"></line><line x1="40.953999519348145" y1="118.7093334197998" x2="35.953999519348145" y2="118.7093334197998" style="visibility: inherit;" fill="rgb(0, 0, 0)" stroke="rgb(204, 204, 204)" stroke-width="1px"></line><line x1="40.953999519348145" y1="106.83840007781983" x2="35.953999519348145" y2="106.83840007781983" style="visibility: inherit;" fill="rgb(0, 0, 0)" stroke="rgb(204, 204, 204)" stroke-width="1px"></line><line x1="40.953999519348145" y1="94.96746673583985" x2="35.953999519348145" y2="94.96746673583985" style="visibility: inherit;" fill="rgb(0, 0, 0)" stroke="rgb(204, 204, 204)" stroke-width="1px"></line><line x1="40.953999519348145" y1="83.09653339385986" x2="35.953999519348145" y2="83.09653339385986" style="visibility: inherit;" fill="rgb(0, 0, 0)" stroke="rgb(204, 204, 204)" stroke-width="1px"></line><line x1="40.953999519348145" y1="71.22560005187988" x2="35.953999519348145" y2="71.22560005187988" style="visibility: inherit;" fill="rgb(0, 0, 0)" stroke="rgb(204, 204, 204)" stroke-width="1px"></line><line x1="40.953999519348145" y1="59.3546667098999" x2="35.953999519348145" y2="59.3546667098999" style="visibility: inherit;" fill="rgb(0, 0, 0)" stroke="rgb(204, 204, 204)" stroke-width="1px"></line><line x1="40.953999519348145" y1="47.48373336791994" x2="35.953999519348145" y2="47.48373336791994" style="visibility: inherit;" fill="rgb(0, 0, 0)" stroke="rgb(204, 204, 204)" stroke-width="1px"></line><line x1="40.953999519348145" y1="35.61280002593995" x2="35.953999519348145" y2="35.61280002593995" style="visibility: inherit;" fill="rgb(0, 0, 0)" stroke="rgb(204, 204, 204)" stroke-width="1px"></line><line x1="40.953999519348145" y1="23.741866683959955" x2="35.953999519348145" y2="23.741866683959955" style="visibility: inherit;" fill="rgb(0, 0, 0)" stroke="rgb(204, 204, 204)" stroke-width="1px"></line><line x1="40.953999519348145" y1="11.870933341979992" x2="35.953999519348145" y2="11.870933341979992" style="visibility: inherit;" fill="rgb(0, 0, 0)" stroke="rgb(204, 204, 204)" stroke-width="1px"></line><line x1="40.953999519348145" y1="0" x2="35.953999519348145" y2="0" style="visibility: inherit;" fill="rgb(0, 0, 0)" stroke="rgb(204, 204, 204)" stroke-width="1px"></line></g><g transform="translate(30.953999519348145, 0)"><text style="text-anchor: end; visibility: hidden; font-family: &quot;Helvetica Neue&quot;, sans-serif; font-size: 12px; font-weight: 200;" x="0" y="178.0640001296997" dx="0em" dy="0.3em" fill="rgb(50, 49, 63)" stroke="none" stroke-width="1px">200</text><text style="text-anchor: end; visibility: inherit; font-family: &quot;Helvetica Neue&quot;, sans-serif; font-size: 12px; font-weight: 200;" x="0" y="166.19306678771972" dx="0em" dy="0.3em" fill="rgb(50, 49, 63)" stroke="none" stroke-width="1px">220</text><text style="text-anchor: end; visibility: hidden; font-family: &quot;Helvetica Neue&quot;, sans-serif; font-size: 12px; font-weight: 200;" x="0" y="154.32213344573975" dx="0em" dy="0.3em" fill="rgb(50, 49, 63)" stroke="none" stroke-width="1px">240</text><text style="text-anchor: end; visibility: hidden; font-family: &quot;Helvetica Neue&quot;, sans-serif; font-size: 12px; font-weight: 200;" x="0" y="142.45120010375976" dx="0em" dy="0.3em" fill="rgb(50, 49, 63)" stroke="none" stroke-width="1px">260</text><text style="text-anchor: end; visibility: inherit; font-family: &quot;Helvetica Neue&quot;, sans-serif; font-size: 12px; font-weight: 200;" x="0" y="130.5802667617798" dx="0em" dy="0.3em" fill="rgb(50, 49, 63)" stroke="none" stroke-width="1px">280</text><text style="text-anchor: end; visibility: hidden; font-family: &quot;Helvetica Neue&quot;, sans-serif; font-size: 12px; font-weight: 200;" x="0" y="118.7093334197998" dx="0em" dy="0.3em" fill="rgb(50, 49, 63)" stroke="none" stroke-width="1px">300</text><text style="text-anchor: end; visibility: hidden; font-family: &quot;Helvetica Neue&quot;, sans-serif; font-size: 12px; font-weight: 200;" x="0" y="106.83840007781983" dx="0em" dy="0.3em" fill="rgb(50, 49, 63)" stroke="none" stroke-width="1px">320</text><text style="text-anchor: end; visibility: inherit; font-family: &quot;Helvetica Neue&quot;, sans-serif; font-size: 12px; font-weight: 200;" x="0" y="94.96746673583985" dx="0em" dy="0.3em" fill="rgb(50, 49, 63)" stroke="none" stroke-width="1px">340</text><text style="text-anchor: end; visibility: hidden; font-family: &quot;Helvetica Neue&quot;, sans-serif; font-size: 12px; font-weight: 200;" x="0" y="83.09653339385986" dx="0em" dy="0.3em" fill="rgb(50, 49, 63)" stroke="none" stroke-width="1px">360</text><text style="text-anchor: end; visibility: hidden; font-family: &quot;Helvetica Neue&quot;, sans-serif; font-size: 12px; font-weight: 200;" x="0" y="71.22560005187988" dx="0em" dy="0.3em" fill="rgb(50, 49, 63)" stroke="none" stroke-width="1px">380</text><text style="text-anchor: end; visibility: inherit; font-family: &quot;Helvetica Neue&quot;, sans-serif; font-size: 12px; font-weight: 200;" x="0" y="59.3546667098999" dx="0em" dy="0.3em" fill="rgb(50, 49, 63)" stroke="none" stroke-width="1px">400</text><text style="text-anchor: end; visibility: hidden; font-family: &quot;Helvetica Neue&quot;, sans-serif; font-size: 12px; font-weight: 200;" x="0" y="47.48373336791994" dx="0em" dy="0.3em" fill="rgb(50, 49, 63)" stroke="none" stroke-width="1px">420</text><text style="text-anchor: end; visibility: hidden; font-family: &quot;Helvetica Neue&quot;, sans-serif; font-size: 12px; font-weight: 200;" x="0" y="35.61280002593995" dx="0em" dy="0.3em" fill="rgb(50, 49, 63)" stroke="none" stroke-width="1px">440</text><text style="text-anchor: end; visibility: inherit; font-family: &quot;Helvetica Neue&quot;, sans-serif; font-size: 12px; font-weight: 200;" x="0" y="23.741866683959955" dx="0em" dy="0.3em" fill="rgb(50, 49, 63)" stroke="none" stroke-width="1px">460</text><text style="text-anchor: end; visibility: hidden; font-family: &quot;Helvetica Neue&quot;, sans-serif; font-size: 12px; font-weight: 200;" x="0" y="11.870933341979992" dx="0em" dy="0.3em" fill="rgb(50, 49, 63)" stroke="none" stroke-width="1px">480</text><text style="text-anchor: end; visibility: hidden; font-family: &quot;Helvetica Neue&quot;, sans-serif; font-size: 12px; font-weight: 200;" x="0" y="0" dx="0em" dy="0.3em" fill="rgb(50, 49, 63)" stroke="none" stroke-width="1px">500</text></g><line x1="40.953999519348145" y1="0" x2="40.953999519348145" y2="178.0640001296997" fill="rgb(0, 0, 0)" stroke="rgb(204, 204, 204)" stroke-width="1px"></line></g></g><g transform="translate(40, 0)" clip-path="url(#clip_0)"><clipPath id="clip_0"><rect width="289" height="178"></rect></clipPath><g><g><g><line x1="0" y1="0" x2="0" y2="178.0640001296997" fill="rgb(0, 0, 0)" stroke="rgb(60, 60, 60)" stroke-width="1px" opacity="0.25"></line><line x1="32.11622227562798" y1="0" x2="32.11622227562798" y2="178.0640001296997" fill="rgb(0, 0, 0)" stroke="rgb(60, 60, 60)" stroke-width="1px" opacity="0.25"></line><line x1="64.23244455125597" y1="0" x2="64.23244455125597" y2="178.0640001296997" fill="rgb(0, 0, 0)" stroke="rgb(60, 60, 60)" stroke-width="1px" opacity="0.25"></line><line x1="96.34866682688394" y1="0" x2="96.34866682688394" y2="178.0640001296997" fill="rgb(0, 0, 0)" stroke="rgb(60, 60, 60)" stroke-width="1px" opacity="0.25"></line><line x1="128.46488910251193" y1="0" x2="128.46488910251193" y2="178.0640001296997" fill="rgb(0, 0, 0)" stroke="rgb(60, 60, 60)" stroke-width="1px" opacity="0.25"></line><line x1="160.58111137813992" y1="0" x2="160.58111137813992" y2="178.0640001296997" fill="rgb(0, 0, 0)" stroke="rgb(60, 60, 60)" stroke-width="1px" opacity="0.25"></line><line x1="192.69733365376788" y1="0" x2="192.69733365376788" y2="178.0640001296997" fill="rgb(0, 0, 0)" stroke="rgb(60, 60, 60)" stroke-width="1px" opacity="0.25"></line><line x1="224.8135559293959" y1="0" x2="224.8135559293959" y2="178.0640001296997" fill="rgb(0, 0, 0)" stroke="rgb(60, 60, 60)" stroke-width="1px" opacity="0.25"></line><line x1="256.92977820502387" y1="0" x2="256.92977820502387" y2="178.0640001296997" fill="rgb(0, 0, 0)" stroke="rgb(60, 60, 60)" stroke-width="1px" opacity="0.25"></line><line x1="289.04600048065186" y1="0" x2="289.04600048065186" y2="178.0640001296997" fill="rgb(0, 0, 0)" stroke="rgb(60, 60, 60)" stroke-width="1px" opacity="0.25"></line></g><g><line x1="0" y1="178.0640001296997" x2="289.04600048065186" y2="178.0640001296997" fill="rgb(0, 0, 0)" stroke="rgb(60, 60, 60)" stroke-width="1px" opacity="0.25"></line><line x1="0" y1="166.19306678771972" x2="289.04600048065186" y2="166.19306678771972" fill="rgb(0, 0, 0)" stroke="rgb(60, 60, 60)" stroke-width="1px" opacity="0.25"></line><line x1="0" y1="154.32213344573975" x2="289.04600048065186" y2="154.32213344573975" fill="rgb(0, 0, 0)" stroke="rgb(60, 60, 60)" stroke-width="1px" opacity="0.25"></line><line x1="0" y1="142.45120010375976" x2="289.04600048065186" y2="142.45120010375976" fill="rgb(0, 0, 0)" stroke="rgb(60, 60, 60)" stroke-width="1px" opacity="0.25"></line><line x1="0" y1="130.5802667617798" x2="289.04600048065186" y2="130.5802667617798" fill="rgb(0, 0, 0)" stroke="rgb(60, 60, 60)" stroke-width="1px" opacity="0.25"></line><line x1="0" y1="118.7093334197998" x2="289.04600048065186" y2="118.7093334197998" fill="rgb(0, 0, 0)" stroke="rgb(60, 60, 60)" stroke-width="1px" opacity="0.25"></line><line x1="0" y1="106.83840007781983" x2="289.04600048065186" y2="106.83840007781983" fill="rgb(0, 0, 0)" stroke="rgb(60, 60, 60)" stroke-width="1px" opacity="0.25"></line><line x1="0" y1="94.96746673583985" x2="289.04600048065186" y2="94.96746673583985" fill="rgb(0, 0, 0)" stroke="rgb(60, 60, 60)" stroke-width="1px" opacity="0.25"></line><line x1="0" y1="83.09653339385986" x2="289.04600048065186" y2="83.09653339385986" fill="rgb(0, 0, 0)" stroke="rgb(60, 60, 60)" stroke-width="1px" opacity="0.25"></line><line x1="0" y1="71.22560005187988" x2="289.04600048065186" y2="71.22560005187988" fill="rgb(0, 0, 0)" stroke="rgb(60, 60, 60)" stroke-width="1px" opacity="0.25"></line><line x1="0" y1="59.3546667098999" x2="289.04600048065186" y2="59.3546667098999" fill="rgb(0, 0, 0)" stroke="rgb(60, 60, 60)" stroke-width="1px" opacity="0.25"></line><line x1="0" y1="47.48373336791994" x2="289.04600048065186" y2="47.48373336791994" fill="rgb(0, 0, 0)" stroke="rgb(60, 60, 60)" stroke-width="1px" opacity="0.25"></line><line x1="0" y1="35.61280002593995" x2="289.04600048065186" y2="35.61280002593995" fill="rgb(0, 0, 0)" stroke="rgb(60, 60, 60)" stroke-width="1px" opacity="0.25"></line><line x1="0" y1="23.741866683959955" x2="289.04600048065186" y2="23.741866683959955" fill="rgb(0, 0, 0)" stroke="rgb(60, 60, 60)" stroke-width="1px" opacity="0.25"></line><line x1="0" y1="11.870933341979992" x2="289.04600048065186" y2="11.870933341979992" fill="rgb(0, 0, 0)" stroke="rgb(60, 60, 60)" stroke-width="1px" opacity="0.25"></line><line x1="0" y1="0" x2="289.04600048065186" y2="0" fill="rgb(0, 0, 0)" stroke="rgb(60, 60, 60)" stroke-width="1px" opacity="0.25"></line></g></g></g><g><g><line x1="0" y1="296.7733335494995" x2="289.04600048065186" y2="296.7733335494995" fill="rgb(0, 0, 0)" stroke="rgb(153, 153, 153)" stroke-width="1.5px"></line></g></g><g><g><line x1="32.11622227562798" y1="0" x2="32.11622227562798" y2="178.0640001296997" fill="rgb(0, 0, 0)" stroke="rgb(153, 153, 153)" stroke-width="1.5px"></line></g></g><g><g><g><g><g><path style="fill: none;" stroke="rgb(255, 112, 67)" stroke-width="2px" d="M37.3029921731419,-11.536493819888278L37.32868515096241,1.8592986032119825L37.42342800667551,-1.9286227282935329L37.92925850751664,-0.3627398774615642L38.00954906320572,5.4946589402828465L38.25202654138671,1.4353002955161855L38.4688110417472,5.791256331285581L39.048508853822284,14.766354215938605L39.181791176266145,12.791272590241391L39.32952579873403,-0.9240252453975302L39.356824587668314,13.881060524237427L39.62499504366981,13.42173978211531L39.804845888413325,22.353683717484927L40.09870932223532,24.39647087993231L40.36045653378169,26.762703960185547L40.69928267878956,14.617954718557485L40.7217640343825,19.304853407051297L41.306279279798936,20.919902363336234L41.53269864684211,15.54581470767775L41.6017485247347,27.781303999614778L41.73503084717857,21.268162564329913L42.07225118107266,27.59278322793702L42.1027615922345,30.749700899385857L42.6728245376269,29.721173349362942L42.873550926849575,37.987742080868315L42.89282066021495,31.162108471974875L43.1224516494857,32.500856653122526L43.30230249422921,39.557017867919654L43.605800794733895,38.94792928317443L43.97031991756227,41.01517609199027L44.09557318443722,39.29067902744296L44.100390617778565,34.99504536146176L44.63833734089533,46.17022714835986L44.69454072987769,46.74618545813624L45.068694719388745,45.637611710086645L45.25175718635983,40.46970470972195L45.31759544202487,56.67473730027373L45.54562062018183,45.712968394179285L45.76240512054232,51.442036318130945L45.77846323168013,48.03131197238798L45.9278036652618,48.184795841594934L46.37261334377925,55.936637646766215L46.46414457726479,50.257253685817986L46.98603318924374,52.54677369918885L47.32004190091027,45.84923852125797L47.45814165669547,50.12377514688491L47.47901720117463,50.28067354593952L47.68937845707999,49.12583601333958L48.81505204784075,52.501516501702866L48.94351693694326,51.60496147271152L49.012566814835864,49.3024443103543L49.14906075950728,59.71081809274595L49.426866082191474,46.419445400326794L49.6227750380728,63.64242742848607L49.62759247141415,58.769652379978254L49.72554694935481,58.634602605467535L49.812260749499,62.4692341603414L49.943937260829074,60.06302739583869L50.63443603975507,56.65619136438454L50.68903361762365,54.32963380466121L50.880125140163635,55.92118519776113L50.99895516258346,61.734294728735236L51.336175496477544,58.687650848491174L51.344204552046456,58.94038851560269L51.649308663664925,53.73274029581573L51.851640864001375,61.41022445089075L52.794251987791064,60.92466665679132L53.04636433265474,67.1042985542426L53.08972123272684,60.9889117418857L53.950435989713675,69.549768838065L53.98736964533064,59.94330945455975L54.29247375694911,70.06776958356474L54.95246212471326,59.901431952412196L55.06968633601931,71.13485175095785L55.14034202502569,66.57090654260224L55.31537543642786,56.88479315729292L55.62208535916011,64.38238145500932L55.670259692573545,59.62015725055468L55.84850472620329,69.02813304991702L55.99945097089873,65.45225806633263L56.96293763916758,66.8508972811412L57.01753521703614,64.2051949670117L57.43022867327796,69.06576126172588L57.99547418532901,71.4634146944605L58.324665463654206,72.33560117743951L59.18538022064103,72.95393837346616L59.52099474342135,65.40165200732565L59.570774887948566,72.42546012645302L59.92405333298048,74.76641232289442L59.959381177483664,68.03390517066423L60.28696664469507,69.21195982665313L60.30944800028801,67.19457455024018L61.74504313600858,72.35987122740387L62.812907526673214,72.95452085466528L62.89801551570363,80.78936333141598L63.479319138892485,73.97147146575499L63.65435255029467,72.83027070026706L63.676833905887605,71.24600897409465L63.80048136164877,78.3225338178487L64.22441549568705,76.30188643916995L64.31755254028639,78.48008122370352L64.33200484031042,79.94440541956085L64.4540464849578,82.20623952188329L64.62426246301862,83.05706316758591L64.63710895192888,73.55521375481355L64.75112154100736,76.89349451817131L64.93900144131977,74.04089917435577L65.09797674158415,81.30422209144457L65.16060337502162,68.5528760720398L65.48337140889168,71.4330022765615L65.48818884223301,77.54858520320755L65.60541305353907,76.39193071249767L65.96672055413988,71.92889353482332L66.06949246542189,82.48454974365912L66.21080384343465,76.96297319513147L66.35050941033363,74.35032060949366L66.67809487754504,76.06172793539724L67.19998348952399,79.45188878032502L67.83749050169521,67.42222967178178L67.97398444636663,74.75495383206146L68.0189471575525,72.54132033016757L69.271479826302,66.53224909511718L69.28753793743982,80.47230024906813L69.3581936264462,76.87847286056824L69.39994471540452,80.21372076573643L69.50913987114166,73.8128306574065L69.62957570467525,76.95398684387308L69.73555923818482,69.06397831987975L69.91701589404212,73.56334001205245L70.1257713388337,69.83345194320246L70.1434352610853,74.10679940606127L70.17555148336092,71.2766456630337L70.55612871732713,84.62317342297197L70.89174324010743,76.88757795000934L71.10852774046792,74.22178891018508L71.11173936269549,86.12400755527865L71.17276018501917,68.10735254942972L71.65289770803982,75.31449198152053L71.81026719719038,84.26750240095268L71.82311368610064,85.15219206484026L72.1025248198986,77.46147277115628L72.15551658665339,77.47603041491958L72.66777033194965,77.7479273985677L72.79462940993838,78.7320242868873L72.8893722656515,78.1220315450788L73.56541874455347,84.64263729736894L73.62162213353581,75.67513246877806L73.74045215595564,80.94517387688727L74.35387200142013,84.7828054067184L75.14714269162815,81.38099610755609L75.14874850274192,83.47173348595854L75.19852864726914,77.18580051175837L75.70114752588273,83.62449321851066L75.72041725924811,81.47991882846472L75.72844631481699,85.7551074729218L75.91311459290186,77.38542687421766L76.28405696018538,82.12672086344858L76.44142644933594,82.58447221277397L76.49762983831829,87.46521187537152L76.79791651659542,84.59532602509815L76.94404532794952,83.82042500417732L77.78227872934342,79.23982769635232L77.95088889629046,73.21015567665266L78.63657024187512,89.82898206705688L78.67832133083344,86.75202461789485L78.78430486434301,83.32909057000886L79.00751260915862,77.36340881524077L79.10707289821306,73.99786759744588L79.4410816098796,86.71603816420807L79.4667745877001,84.77648076284194L79.665895165809,88.33246288116652L80.01596198861334,86.1730129570379L80.29858474463886,74.20929809684901L80.34033583359718,84.40390630783924L80.56996682286793,79.67020423461014L80.81565592327647,80.46175405217863L81.04528691254723,76.80580705845684L81.27331209070418,86.7653255379258L81.42425833539963,70.76580748960508L81.44673969099257,86.94622266851073L82.5483261150466,84.564767110787L82.60774112625653,88.41789762024978L83.01401133804322,80.29153205315707L83.30948058297899,86.28778456405648L83.39940600535074,87.24633742491145L83.50860116108788,82.39958906335825L83.83458081718551,80.61777515480118L84.20070575112766,80.90086874123314L84.37252754030227,84.05761514960194L84.55719581838714,91.53757496212923L84.72580598533419,89.83436396959188L84.93777305235332,80.01777329865045L84.95061954126358,85.17692077981066L85.16258660828274,84.8119546390025L85.39864084200859,88.93071897462953L85.54316384224892,79.76074456526658L85.65557062021361,85.11644257016988L85.71016819808219,86.43978876315788L85.75513090926806,85.80173165796835L86.29147182127106,81.40545033758609L86.31074155463642,85.77142340248723L86.34125196579826,84.53657192840242L86.36855075473255,92.3456095520673L86.45526455487675,86.57708242403037L86.51467956608666,90.34892321580566L86.57409457729658,89.93255854110573L86.77160934429169,90.1035975223781L86.94021951123874,83.46383783975604L87.29510376738442,84.98807872859939L87.32882580077383,83.61261298890314L87.5568509789308,82.71064949051747L87.67568100135061,84.06484354089174L87.9711502462864,78.72070171418441L88.85434635886615,86.57594175615851L88.88806839225556,88.35754677165961L88.92500204787254,85.23224995639076L89.09521802593338,85.62792533983381L89.2397410261737,87.39342936364879L89.55769162670241,83.8513731376095L89.68294489357737,82.37241944050255L89.84994924941063,84.54551170004736L89.87724803834492,85.8467848751863L89.98483738296827,88.43056287324887L90.32045190574858,87.0262165041343L90.36702042804825,88.31404384557146L90.93547756232687,85.70188839317412L90.9836518957403,84.87886338176278L91.15707949602869,83.9177457674699L91.29036181847255,80.85334582251159L91.38189305195807,92.76410097922846L91.8556073305236,85.41041995075844L92.31647512017886,81.23313029649435L92.75807317646874,93.53354908715788L92.93792402121227,86.7685215329912L93.44536033316719,83.78206582963415L93.84199567827119,87.31292238871094L93.86768865609169,80.608972941184L94.29322860124377,88.23244269344674L94.48592593489754,84.19736657776204L94.7123453019407,88.3909768341107L95.21817580278184,86.19252046525507L95.8701351149771,85.32511471180916L95.91509782616296,79.16732120925636L95.99699419296583,85.73581147675381L96.15275787100262,85.67621716301554L96.20253801552984,91.35918333029292L96.38078304915958,86.48099550132167L96.82398691656324,77.67439578709703L97.15157238377466,88.03529062832298L97.38762661750052,86.76328554340478L97.41331959532103,89.10427312976081L97.41974283977615,86.82514747013235L97.47273460653092,87.44026586812248L97.50485082880655,95.4928376755289L97.62207504011259,92.30080598310752L98.0187103852166,89.34579266039279L98.34629585242801,89.38349138072678L98.38965275250011,89.13095172316349L98.5020595304648,88.52748605094682L98.82001013099352,81.99586047006665L98.84570310881404,90.83637860934572L99.77546774369345,91.10286056472795L100.28290405564837,88.10412935613485L100.31180865569644,93.02863565076801L100.64902898959055,86.44864966362702L101.99791032516691,82.38044455708743L102.14082751429345,85.05259315654796L102.19221346993446,89.93216883310916L102.30783187012672,96.87417500098452L102.35118877019883,86.07026010102271L102.35761201465395,84.14547419554384L102.45877811482218,100.84471467934284L102.76067060421308,88.01207673464828L102.88913549331559,92.86349782773365L103.09307350476584,94.10232868145194L103.10431418256229,97.1371873974634L103.17496987156868,87.88688973319016L103.26007786059908,85.61922400109088L103.71131078357166,91.55695040121846L104.08225315085518,88.2236465522898L104.31991319569482,82.24201274895012L104.87552384106318,94.24568285318456L104.88997614108722,87.96231901089962L104.97508413011762,89.63993878668326L105.19186863047813,89.30003502102512L105.43434610865911,92.3332104528646L106.49418144375483,95.33872074536492L106.51987442157532,98.92286862160971L106.64673349956406,90.13833323084505L106.78483325534926,93.45762318403798L107.97634510177507,91.96231006176743L108.07269376860194,88.86698625127113L108.52874412491586,96.83050744567386L108.61385211394628,93.38289411168911L108.6636322584735,86.52956456007517L108.72144145856964,87.84954486525106L108.7840680920071,91.6285812753048L109.00567002570895,92.8416748966303L109.11004774810473,88.52602754037746L109.14698140372171,88.91123768418338L109.31719738178252,94.713498198521L109.48580754872958,92.33641135569887L109.55967485996352,83.55363171844874L110.03338913852903,88.95482874457582L110.55046031716665,98.82396473363033L111.23774747386508,95.91087183507324L111.36460655185381,93.16168795022298L111.56693875219028,92.13623934962106L112.41641283138063,89.34184306118911L112.4967033870697,89.54632515046455L112.64604382065137,91.0900024550613L112.67173679847188,91.16325705706467L112.71991113188531,96.8856179450129L112.83713534319135,95.14022457828564L113.41683315526643,92.96216068259488L113.72193726688491,94.88313304386892L113.97886704508993,88.19485589563423L114.22776776772605,85.71713105572212L114.37710820130772,92.75410961139988L114.4654278125657,91.56525909574717L115.2940263472769,94.79529788574501L115.30687283618715,90.63667625361941L115.5445328810268,86.84382197175846L115.62000600337453,84.21834920048106L116.0872970374849,87.88459156335338L116.18525151542558,87.80965281994366L116.43736386028925,87.91647333018095L116.71356337185965,91.73880659854223L117.0732650613467,87.99266984752082L117.12625682810148,86.0743420574978L117.37194592851003,93.52301595599633L117.39603309521675,96.92414898524073L117.97573090729183,94.5075382561229L118.3579139523718,95.11935701244532L118.36915463016827,99.20725466556397L118.3755778746234,94.03734076540161L118.38200111907852,95.14427861936102L118.60842048612172,99.22595595747642L118.67907617512809,91.03266282088528L118.9456408200158,94.89113461522744L119.00345002011194,92.66653174993716L119.02753718681866,94.22432370901046L119.21702289824485,88.19714764494418L119.93963789944648,100.83333580204936L120.12591198864513,99.09094572966316L120.3346674334367,98.5965490342629L120.40692893355687,95.57955673805108L120.74575507856474,90.27533182579786L120.91597105662558,97.7151568867489L121.30778896838825,98.47301423530034L121.32063545729848,94.21885390188702L121.58077685773108,99.45719019110834L121.66588484676149,93.10197420399568L122.58280299273066,97.71058361043958L122.85579088207352,96.91603156886826L122.87827223766644,98.01935906735478L123.01797780456542,98.06394210066496L123.3054179939323,99.513265961186L123.35840976068708,96.34378805150453L123.64584995005396,98.1685537830567L124.12759328418836,95.73221341214078L124.13722815087105,100.39866948668038L124.42466834023793,94.66333944154356L124.8678722076416,97.09634213566603L125.72698115351464,93.60651222440714L125.95982376501294,90.77107395786595L126.14609785421159,92.82109472101176L126.282591798883,94.46337447382095L126.40784506575795,83.84002008678843L126.45120196583007,94.8633365763813L126.47850075476434,93.73395182444953L127.28301212276882,98.44987800719126L127.35848524511655,92.10022735086963L127.5527883898841,96.18397829820346L127.88679710155063,93.78375039911978L127.93497143496408,95.31922418403548L128.7523292918788,97.81810713000012L128.76196415856148,101.2814769098489L128.79729200306468,98.21464562227087L128.941815003305,96.45744655014269L129.2276493815581,95.05753577142266L130.39989149461852,99.82127884956105L130.513904083697,88.96508563544558L130.7740454841296,104.09223434284834L130.92820335105262,93.91923902415171L131.1626517736647,98.25518999317241L131.89971907489036,92.33089609203792L132.02818396399286,92.55077650534108L132.50510986478594,92.4474345951812L132.55489000931317,93.36821623000989L133.0799902435197,106.44270297208632L133.3208619105869,101.52467355675199L133.63560088888804,99.70494255621118L133.85720282258987,98.79231669156525L133.96960960055458,95.04115996143072L133.97121541166834,93.88304497246284L134.10610354522598,96.75175794817072L134.35982170120346,95.58959127202442L134.67134905727704,98.92888951424953L134.86886382427215,106.84770673110586L135.04550304678813,100.99129844657291L135.24944105823835,104.94206182405749L135.70870303677984,96.8904521391834L135.72476114791763,100.82473702975285L135.99132579280536,98.60195367877202L136.3156996377892,99.0373925587045L136.88736839429538,100.80385090643529L136.9628415166431,104.23153932257993L137.21655967262055,104.4586292313396L137.26633981714778,97.07798466376984L137.45903715080155,91.596619403618L137.52648121758037,98.36237568239827L137.63246475108994,104.40828517070783L137.95041535161866,105.9111249994162L138.1784405297756,94.01720191994887L138.5782874971072,103.47125502646914L139.1387155758169,101.61628736617588L139.3635291317463,100.25023648803293L139.6220647210651,99.76487193329451L139.667027432251,98.1963502761801L139.73928893237112,105.78014173529407L140.41212378904555,94.35801861519383L141.73370633568763,102.75530769329421L141.7626109357357,96.36728753303555L141.9183746137725,99.09237961128592L142.00027098057535,102.10859907664663L142.25880656989415,101.11290111637062L142.80317653746604,97.32354430924798L142.89791939317917,102.73596444321896L143.19178282700116,98.28575966976483L143.2142641825941,106.30727958778917L143.64783318331507,102.22744715604314L143.68155521670448,96.71668234707194L144.07176731735336,100.54901895454438L144.19862639534207,98.6858523116996L144.38650629565453,97.3920173513615L145.26488497489294,92.02052917509012L145.45437068631915,109.2344535248253L145.57641233096652,91.65303340277859L145.9923174094359,101.18782466043514L146.12238810965218,99.58823914262045L146.81609851080577,100.36449189078627L147.01843071114223,98.7538363555555L147.06018180010054,104.12802945331927L147.24645588929917,98.04762162980941L147.49375080082154,102.53610421875419L147.58367622319327,100.39903430592045L147.66557258999612,111.73464066297316L147.70090043449932,106.19557657130969L147.75389220125408,101.0480600161239L147.79403747909862,95.38494857476445L148.2115483686818,95.90074814064653L148.21475999090936,98.57429381216608L148.37855272451506,98.8013874684012L148.3833701578564,104.58175001369058L148.63066506937872,102.89205820677903L148.89562390315265,107.86608462039908L149.1364955702199,102.39158069025142L149.35488588169417,101.28262123521584L149.627873771037,101.65427602191839L149.8510815158526,106.532949367013L150.60741855044364,98.14154605443112L150.61544760601254,100.583215683521L150.69092072836028,107.19516450605919L150.78726939518717,106.05042279685073L150.82420305080416,103.41609203393094L151.24653137372863,105.32611399039146L151.2577720515251,101.93235158150783L152.39308050896855,104.96464709929595L152.82664950968956,107.51755694019607L153.3051812215964,97.24191479551503L153.33408582164446,104.94259248316472L153.46255071074697,106.03256741499426L154.04224852282206,103.16221907791508L154.31684222327868,101.46404511663842L154.5079337458187,100.0293445938858L154.8499715130541,103.12676077028758L154.93186787985695,106.56828900097385L155.16310468024147,102.17940186192001L155.2385778025892,100.0827195024656L155.42645770290162,103.16424811478656L155.61273179210028,103.20199845478922L155.62397246989676,102.94946003609802L156.08162863732443,110.89069221317148L156.28396083766089,106.01239324839578L156.61475792709984,96.91614009336752L157.0515385500484,102.67187722199826L157.21051385031276,100.89107853835434L157.5862736509376,106.568942147447L157.70349786224364,105.67332999331364L157.7950290957292,102.39326409924091L158.6139927637577,105.3920819866915L158.72318791949485,108.39676769812648L158.846835375256,106.96631676743978L158.86931673084894,114.44480288390889L158.9319433642864,101.37276366105189L158.98332931992744,102.39866954734576L159.47149589851696,110.91367958813446L159.64652930991915,107.37068294638387L159.933969499286,110.68904761612748L160.54096610029538,107.74545841933259L160.63089152266716,107.71101862530254L160.63731476712226,115.40404074251663L160.74169248951807,109.99479270925524L160.84607021191385,105.39348693986663L161.20737771251467,97.42627836901187L161.23307069033518,104.4401283552261L161.46430749071968,104.15588142123225L161.506058579678,104.89128960202369L161.56547359088793,109.59766129511124L162.18049924746617,104.08052730497779L162.21100965862803,103.06106059523513L162.37480239223376,106.43998998334696L162.79873652627202,114.23303613427893L162.98019318212934,109.07963310467805L163.03639657111168,112.92054639485539L163.71565467224121,110.36966500522784L164.97461058544584,108.64295190399697L165.0292081633144,108.23944732263706L165.15606724130313,113.91415964349153L165.51898055301774,113.05467820513347L165.60248273093436,105.91950352543068L165.82729628686377,98.97767250151956L166.21750838751262,114.57893254176415L166.62217278818557,112.02064870059388L166.88070837750436,116.50314639838217L167.26931466703942,111.83148857964794L167.32070062268045,113.56589247334331L167.63704541209538,106.74641546846111L167.6611325788021,113.80591418560523L167.96944831264813,106.5711442560902L168.10594225731958,108.96816039298763L168.19265605746375,109.74981571413396L168.3179093243387,112.03147211015639L168.64228316932255,106.4018354328538L168.69366912496355,112.05973962348477L168.75308413617344,111.90587855051561L168.88154902527597,109.34963844290509L169.12402650345697,103.9478525430992L169.42591899284787,112.21808211428888L169.4756991373751,116.20013085342002L169.52869090412986,109.01822433785834L169.71175337110097,106.2752079662791L169.81291947126917,110.26448640298155L170.1918908941216,106.83011028289113L170.23845941642125,109.84332789826377L170.9418046842575,108.93807376032066L171.46851072957782,114.67315678520323L171.48938627405695,108.27555319970686L171.60500467424922,106.78237588601253L171.83463566351995,109.11805533887791L172.4528729423258,118.94982525286716L172.54440417581137,107.87130438922826L172.71462015387218,110.04934829028105L172.81899787626796,112.63606561241902L172.89125937638815,111.7024722940918L173.1530065879345,112.20505808150102L173.64759641097916,111.6197154199637L174.13576298956872,102.95235033645046L174.50991697907978,111.68730120762677L174.73633634612295,114.15983669684994L175.4541339139832,118.45532011167685L175.59062785865467,112.74729306939997L175.61632083647515,111.41549097951506L176.22974068193966,114.82313066519646L176.25703947087396,112.60581100264488L176.46579491566553,111.12244463636861L176.5958656158818,110.25409786963807L176.69542590493626,115.2478365642224L177.0197997499201,112.14532143721199L177.36183751715555,116.5242417174075L178.36386365215512,109.22513790540575L178.39597987443076,112.12749888282603L178.72677696386972,110.18770330482042L179.0061880976677,112.49456074599586L179.2470597647349,108.91118748193364L179.27917598701055,110.81653559171328L179.2839934203519,114.0484224553354L179.4204873650233,118.45264616988052L179.42530479836464,111.38949089380786L180.00179098821215,112.70443538159674L180.04354207717049,114.41958917052999L181.02148104546336,117.26674473017488L181.11622390117645,120.55744131928684L181.65898805763456,114.39082323287633L181.81475173567136,111.78079282367581L182.21299289188917,109.16560465199575L182.90349167081516,110.76833208375521L183.67267519431644,118.19289226749738L183.7433308833228,114.46079626905899L183.92318172806634,113.66520220458219L184.32142288428412,116.63313154921047L184.49324467345872,115.67248097272994L184.75980931834644,110.03744162147339L184.9637473297967,114.6271289204848L185.18374345238473,115.22606709601712L185.2736688747565,112.74220369041022L185.32505483039748,108.57317061901574L185.43906741947598,108.7989709455396L186.04927564271293,118.79734184065492L186.19219283183944,116.86492194055535L186.22912648745643,113.2341155403421L186.7574383438905,117.74518221675294L187.13319814451535,111.71647205251666L187.23757586691116,117.29238578607516L187.90880491247177,114.43918411350484L188.13040684617363,108.41476324235828L188.2428136241383,108.3968993548764L188.35522040210301,109.51886736906101L188.54791773575676,115.30260372559465L188.61857342476316,119.4603178810788L188.8369637362374,116.59118259198121L188.92849496972298,111.85170462164085L189.0714121588495,112.67932216437168L189.1581259589937,119.36115277691643L189.2865908480962,113.34833460045431L189.46323007061218,111.5023286696464L189.7089191710207,115.60365122366L189.82614338232673,115.99173373850061L190.1344591161728,122.01130126990125L190.2468658941375,117.15929504701546L190.3255506387128,108.5705617714951L191.1798421512445,115.49708247141129L191.90406296355988,119.39257267759228L192.07427894162075,114.97837427925731L192.0774905638483,124.7024566448573L192.51105956456925,113.09635925300803L193.15338401008182,122.88317729626843L193.60622274416818,116.87246612475748L193.64315639978514,119.76954217885648L193.90329780021773,121.01577827167864L194.07511958939233,113.93114081272421L194.16986244510545,112.14992708586905L194.18431474512948,119.96395518881397L194.29832733420795,114.68433351263576L194.41876316774156,107.82324210750227L194.55204549018544,113.43348821131879L194.67890456817415,120.17579238928998L194.8410914906661,112.75237805736965L194.8732077129417,119.16377121153663L194.99524935758907,122.01501747586806L195.08678059107464,109.990527590737L195.10444451332623,121.14314538849416L195.78530842556953,124.4340381645091L195.81742464784514,116.27607571846707L196.40193989326158,122.45260163773693L196.72631373824544,108.37174400943508L196.77769969388643,119.45690580800964L196.86441349403066,122.22118761299511L197.00893649427096,120.36859400158369L197.32206966145833,118.68579456704978L197.37184980598556,119.97599062159017L197.46016941724352,113.50791609549863L197.5163728062259,126.00680047608957L197.53243091736368,120.22410745679319L197.84556408455106,117.2793309556196L198.2566517296791,115.52506119836511L198.34497134093706,116.78638720514039L199.03547011986308,118.17439703029197L199.56378197629718,121.41197094842954L199.6569190208965,116.40268101209287L200.2510691329956,114.90661687928531L200.41807348882887,123.45161550634816L200.44055484442183,115.3473389073452L200.47106525558365,117.3976297639376L200.5369035112487,122.58813797490734L200.5593848668416,118.11450414195463L200.58347203354833,120.52347802512999L200.6043475780275,123.87607094739273L200.66697421146498,118.76092242707597L200.87572965625657,120.3579603305077L201.15192916782695,121.59109868106034L201.42331124605602,122.45343997541352L201.70593400208153,118.54574755028328L201.85366862454944,118.6873041855849L201.96928702474167,122.51047112094773L201.99176838033463,124.06858416846455L202.6694206703504,121.06464575938966L202.76095190383595,118.91068630272213L202.95846667083106,125.2856178137765L203.24108942685658,117.02064056391026L203.4016705382347,123.10408226115574L203.5670690829542,123.35870390196874L204.1034099949572,125.22944167603978L205.16485114116668,127.08465671726941L205.22908358571794,120.14135696650239L205.28207535247273,120.39109075945395L205.57754459740852,118.31521943563507L206.26483175410695,125.47046151577814L206.48482787669502,121.78621140289292L207.3070031669511,119.72454350541304L207.5382399673356,121.93796014418847L207.53984577844938,124.4350105452992L207.63298282304868,116.29420222895254L207.95414504580498,119.33929085838719L208.08100412379372,125.2053884563799L208.46961041332878,119.98763548816194L208.8566108917501,125.77309551456332L209.06215471431412,127.15201392943354L209.11514648106893,125.44720333012455L209.42667383714252,121.83996272647678L209.5230225039694,125.26540458121403L209.6964501042578,120.71320280901872L209.75425930435392,122.41426730113798L209.78476971551578,130.32997325468486L209.9389275824388,121.39595083092414L210.6727832614369,125.77974032276984L210.7386215171019,124.76255452308993L210.87993289511468,120.97268200782155L211.23642296237418,127.23593891208344L211.4821120627827,123.58459067501664L211.78561036328742,121.7952600227542L211.83057307447328,121.13680819331825L212.72179824262193,128.28081040796025L213.03332559869554,120.16101306840574L213.09595223213302,130.6922681400692L213.41550864377552,125.713201164645L214.08994931156371,120.77825944706066L214.3163686786069,128.56185601159436L214.51870087894335,129.49089243635046L214.7627841682381,132.47305815270056L215.14657302443186,127.27660668605577L215.64758609193166,130.31089559982397L215.91575654793314,128.40142105231052L215.9286030368434,131.17063711855397L216.49545436000824,129.72548332970945L216.93865822741193,118.62976072405377L217.0237662164423,123.21511383838528L217.59704078406227,122.98120201954535L217.61631051742765,122.72214370904192L218.01294586253167,122.37196601600596L218.02418654032815,124.75318063311369L218.19440251838896,128.4671707999212L218.45293810770775,126.2753067222631L218.5974611079481,127.27268603849745L219.11774390881328,127.9121310358687L219.3923376092699,130.0274458240019L219.4710223538452,124.14037252125868L219.53204317616886,128.3800507118506L219.58664075403743,126.23700949345638L219.64766157636112,128.0502033589064L219.71028820979862,126.4101248904509L219.89656229899725,127.74660418154345L219.95918893243473,128.62047724514287L220.0218155658722,125.13848615611772L220.04429692146516,124.51182316958551L220.0715957103994,129.9820447819041L220.24502331068783,126.9633779383054L220.331737110832,121.98496995715223L221.01581264530287,129.57744001122188L221.32091675692135,128.43812763822362L221.50719084611998,125.98495891283807L221.8604692911519,134.20828466946148L221.90703781345155,125.1277681475292L222.64731673690477,126.52101817884304L223.0600101931466,135.16251510586457L223.10657871544626,132.50055805668975L223.2045331933869,131.04272673982757L223.6926997719765,126.44573910489999L223.96247603909177,128.7431334567488L224.7798338960065,120.14495406155689L224.80392106271321,127.92209720188734L225.28084696350626,131.5030936397277L226.1849186205652,126.61066488394297L226.28126728739207,129.1091551423762L226.72768277702332,125.87434135951206L226.7292885881371,130.17767377858107L226.90753362176682,126.80514447410698L226.9524963329527,128.6340885588574L227.00067066636615,133.91885190070877L227.0665089220312,135.6659202354267L227.25278301122984,132.89280642007617L227.76021932318474,136.06671971753477L227.8276633899636,134.6041239022196L227.88547259005972,136.12589451045272L228.35436943528387,138.06325020643484L228.4041495798111,129.14867593661126L228.87465223614905,124.49944868423825L229.02399266973072,131.62008498211583L229.0432624030961,134.5517141886091L229.21187257004314,132.61262104810126L229.7401844264772,126.08514675467512L230.60892823903296,136.00290333897098L230.64746770576372,123.70448195452933L230.7004594725185,129.32905752561462L231.40219892924097,132.04374954119967L231.50818246275054,138.38165171414272L231.55314517393643,140.63372947448963L232.0910918970532,132.61376402819025L232.37853208642008,134.80185215254636L232.45721683099532,133.90394966683863L232.46203426433667,135.27634435486365L232.47969818658828,137.58123008236444L232.55035387559465,132.96592861642245L232.9116613761955,124.73588813532587L233.30829672129948,136.17870762559158L235.16140274660322,131.54737531645117L235.55161484725213,132.57672326186253L235.94985600346988,128.92648342320896L236.0349639925003,140.99515856926908L236.20999740390246,139.0219101044596L236.4235702820354,133.00955652362597L236.71903952697116,135.5173749329511L236.9245833495352,137.79520130972352L237.0096913385656,136.7455755686284L237.07713540534442,137.2634797512377L237.25216881674663,139.0500204395792L237.26340949454305,135.78001669368638L237.31479545018408,139.98293710023677L237.36618140582507,133.45804574516785L237.46413588376575,137.12121792876184L237.49304048381381,137.3358562745937L237.8398956843906,139.1603765162189L238.14821141823663,132.08961787683572L238.3152157740699,138.8534350612075L238.41477606312432,141.47779824875903L238.6941871969223,132.48919629200054L239.02819590858883,140.3293819842395L239.5003043760406,139.7662647469727L239.56453682059183,132.77397660819506L239.77650388761097,136.29920905555434L239.90175715448592,143.71559983963135L239.91781526562372,136.09112550609933L239.9370849989891,133.3555906802353L239.94993148789936,138.97433427522168L239.99489419908525,142.29534263048876L240.07197313254676,135.90316235963448L240.14102301043934,137.632480061172L240.3449610218896,144.6799117711119L240.58904431118435,135.86082456560356L240.75123123367626,137.66767030080828L240.980862222947,139.59376462649124L240.98567965628834,131.81036841793795L241.13662590098383,135.13558253815745L241.3791033791648,137.559748625417L242.0005522801982,132.4313694477334L242.04872661361162,133.08672480136934L242.35864815857144,135.49207221159716L242.45499682539833,135.08816962910635L242.49514210324287,131.76559524471355L243.26593143785794,141.63354721340056L243.28359536010953,135.4256483492881L243.56942973836263,136.9059443777362L243.6063633939796,132.04456309218543L243.65614353850683,138.50839345279203L243.8841687166638,138.5458547546942L243.90665007225672,140.38422592061158L244.89582971834605,134.8254146778458L245.16881760768888,143.75264146795246L245.55421227499644,138.64456194703826L245.57990525281693,140.66719408009888L245.79668975317742,141.26788403836116L246.01989749799304,136.6207334606307L246.19974834273657,135.67645587282527L246.48558272098967,139.42830485346727L246.53696867663066,146.4156582740266L246.65258707682293,133.12364537298282L247.07009796640608,136.1084661990975L247.30615220013195,137.42922085983412L247.89869650111729,132.73599072825021L247.91957204559645,137.88232506225611L248.05606599026785,135.28130949762112L248.33065969072447,145.91786057186286L248.62612893566026,138.31636056525522L248.66306259127722,139.9804482464416L248.67109164684612,145.35177090134007L248.70320786912177,141.09066310852668L248.87342384718258,142.6176821226859L249.42582287032337,139.58584269679068L249.88829647109245,140.8708165515581L250.30098992733426,144.16022712644607L250.84214827267857,142.7909191125218L250.95616086175707,143.16537712048432L251.081414128632,135.90594001404787L251.58724462947316,138.49244745883757L251.59527368504206,141.17948377275786L251.6193608517488,141.5698297645293L252.14927851929664,134.80861123673355L252.20066447493767,137.26225054063852L252.51700926435257,143.06889542145217L252.8863458205223,139.107886135605L253.01962814296618,141.63778204799002L253.05013855412798,142.28685268364913L253.2155370988475,142.48346211237015L253.30706833233305,147.42129547558602L253.6635583995925,142.271780032466L253.96866251121097,144.78220338374973L254.43113611198004,144.73383450410142L254.47609882316587,144.37966177073272L254.6141985789511,135.65448365878277L255.2260126133018,144.35184067058353L255.261340457805,137.04776030006119L255.73826635859808,141.57023585459044L255.97110897009637,143.41667990916503L256.0449762813303,144.73726828740445L256.8896329271793,130.97434431843436L256.9538653717306,141.17102944418014L256.9667118606408,145.40749961010556L257.00203970514406,137.01878659457014L257.01809781628185,140.08508027124407L257.1401394609292,144.63920672274782L257.19473703879777,145.23729143793992L257.3344426056968,142.97969721611634L257.384222750224,140.8527016066161L258.1341365403599,137.78747534979257L258.41836510749926,146.8741156329677L258.51792539655366,137.0630369657921L258.8920793860647,142.4214516418544L258.9017142527474,143.8263273150095L259.87483578769894,145.63415531912415L259.9053461988608,145.97624555144048L259.9631553989569,145.37799940990766L260.11891907699373,139.59778079164442L260.42884062195355,145.26112260236562L260.45613941088783,140.84409470917325L260.4577452220016,147.02893877765217L260.93788274502225,142.49770472522036L260.9956919451184,149.0418713128079L261.34736457903654,144.22055864061716L261.5737839460797,148.76641427321334L262.0458924135314,142.1230311501439L262.2963989472813,138.32485211253982L262.52602993655205,138.0074061488058L262.66412969233727,138.96830721971503L262.68018780347506,145.01067398313455L262.9066071705182,141.05532202246997L262.9788686706384,147.26934948667605L263.01901394848295,143.06467295597906L263.2213461488194,147.53481198923848L263.3337529267841,140.02971093382524L263.60513500501315,141.46982252300887L263.71593597186404,139.05140521269587L263.8106788275772,145.89972382894553L264.00177035011717,146.00977395569598L264.20089092822604,143.76762166376955L264.2346129616154,147.03574231784964L265.4084608857897,138.7867174741486L265.94159017556507,145.12398645599333L265.95925409781665,142.90456520316354L266.10056547582946,139.9547913576525L266.1631921092669,148.51921047165004L266.22903036493193,143.2394950063906L266.45544973197514,145.70153562377664L267.06565795521203,144.38478342425844L267.20536352211104,140.4609991019683L267.6822894229041,148.30506979068213L268.645776091173,147.8778195934296L268.7421247579998,148.2296290556259L268.75818286913767,136.4167002874414L268.95890925836034,143.83609025594902L269.87743321544326,139.406897998504L270.0797654157798,144.3604343346775L270.2387407160441,146.55213255492217L270.45713102751836,148.13445145998892L270.6530399833997,141.51951090886462L270.746177027999,140.8900698286281L270.85697799484996,144.21499872513533L270.86340123930506,147.50811028765867L271.025588161797,145.56864113702233L271.1636879175822,139.7562331665406L271.18777508428894,147.9894530480143L272.09184674134787,142.85566577461967L272.27330339720515,146.6698950829262L272.47884721976914,144.5437978513769L272.5029343864759,143.84105727734504L272.61534116444057,144.512112090736L272.8048268758668,138.48175750851988L272.88672324266963,142.1749017480088L272.9975242095205,142.56223956997414L273.0039474539757,146.3279441471041L273.20627965431214,147.97519396475587" fill="none"></path></g></g></g></g><g opacity="0.2"><g><g><g><path style="fill: none;" stroke="rgb(255, 112, 67)" stroke-width="2px" d="M37.3029921731419,-11.388676674962056L37.32868515096241,2.188703334927567L37.42342800667551,-2.0217683348059836L37.92925850751664,-0.14838666677474066L38.00954906320572,5.638693337440486L38.25202654138671,1.3354800009727512L38.4688110417472,5.898370004296282L39.048508853822284,14.987053344249716L39.181791176266145,12.742705009281622L39.32952579873403,-1.2612866675853809L39.356824587668314,14.245120010375956L39.62499504366981,13.410445009768011L39.804845888413325,22.573321683108816L40.09870932223532,24.44670335114003L40.36045653378169,26.820890019536023L40.69928267878956,14.319313343763355L40.7217640343825,19.420105014145378L41.306279279798936,20.959616681933397L41.53269864684211,15.413665011227124L41.6017485247347,28.082176687121404L41.73503084717857,21.108003348708138L42.07225118107266,27.74830668687821L42.1027615922345,30.827330022454248L42.6728245376269,29.695881688296794L42.873550926849575,38.19101836115121L42.89282066021495,30.99426502257586L43.1224516494857,32.53377669036388L43.30230249422921,39.730530028939256L43.605800794733895,38.93295169502497L43.97031991756227,41.06601002991198L44.09557318443722,39.24827336192132L44.100390617778565,34.88941502541303L44.63833734089533,46.44502670049667L44.69454072987769,46.76034836739302L45.068694719388745,45.610351699888696L45.25175718635983,40.34262502938509L45.31759544202487,57.07322170823814L45.54562062018183,45.44341669976711L45.76240512054232,51.58291503757238L45.77846323168013,47.947441701591L45.9278036652618,48.188570035099985L46.37261334377925,56.127256707549094L46.46414457726479,50.11759670317174L46.98603318924374,52.60307337164879L47.32004190091027,45.684545033276095L47.45814165669547,50.2288867032528L47.47901720117463,50.28453170329331L47.68937845707999,49.09743836909533L48.81505204784075,52.58452503830195L48.94351693694326,51.58291503757238L49.012566814835864,49.24582503587007L49.14906075950728,59.96676171034575L49.426866082191474,46.09260836690666L49.6227750380728,64.0659433799982L49.62759247141415,58.64983004271984L49.72554694935481,58.631281709372985L49.812260749499,62.563528378903854L49.943937260829074,60.003858377039435L50.63443603975507,56.572416707873344L50.68903361762365,54.27242337286472L50.880125140163635,55.96032170742751L50.99895516258346,61.87724004507065L51.336175496477544,58.612733376026156L51.344204552046456,58.94660337626934L51.649308663664925,53.60468337237835L51.851640864001375,61.599015044868L52.794251987791064,60.912726711034765L53.04636433265474,67.25625671565533L53.08972123272684,60.838533377647394L53.950435989713675,69.76028171747922L53.98736964533064,59.70708504348994L54.29247375694911,70.31673171788454L54.95246212471326,59.6514400434494L55.06968633601931,71.41108338534832L55.14034202502569,66.45867838174104L55.31537543642786,56.646610041260715L55.62208535916011,64.56674838036298L55.670259692573545,59.50305337667464L55.84850472620329,69.25947671711444L55.99945097089873,65.36432671427727L56.96293763916758,66.88529004871845L57.01753521703614,64.14013671338559L57.43022867327796,69.18528338372707L57.99547418532901,71.52237338542938L58.324665463654206,72.35704838603735L59.18538022064103,72.9691433864832L59.52099474342135,65.21594004750251L59.570774887948566,72.59817671954632L59.92405333298048,74.82397672116755L59.959381177483664,67.86835171610116L60.28696664469507,69.2409283837676L60.30944800028801,67.14496671557427L61.74504313600858,72.48688671946526L62.812907526673214,72.9691433864832L62.89801551570363,80.98202339231969L63.479319138892485,73.80381838709116L63.65435255029467,72.8022083863616L63.676833905887605,71.20705171853304L63.80048136164877,78.49654672384261L64.22441549568705,76.25219838887453L64.31755254028639,78.53364339053631L64.33200484031042,79.98041339159013L64.4540464849578,82.2618583932519L64.62426246301862,83.07798506051302L64.63710895192888,73.32156172007322L64.75112154100736,76.97558338940144L64.93900144131977,73.97075338721275L65.09797674158415,81.48282839268447L65.16060337502162,68.23931838303804L65.48337140889168,71.50382505208255L65.48818884223301,77.69896838992835L65.60541305353907,76.36348838895559L65.96672055413988,71.81914671897889L66.06949246542189,82.74411506026983L66.21080384343465,76.8271967226267L66.35050941033363,74.2860750541091L66.67809487754504,76.10381172209978L67.19998348952399,79.53525339126587L67.83749050169521,67.12641838222741L67.97398444636663,74.93526672124862L68.0189471575525,72.48688671946526L69.271479826302,66.38448504835367L69.28753793743982,80.81508839219809L69.3581936264462,76.790100055933L69.39994471540452,80.29573505848646L69.50913987114166,73.65543172031641L69.62957570467525,77.03122838944196L69.73555923818482,68.86996171683072L69.91701589404212,73.67398005366324L70.1257713388337,69.74173338413239L70.1434352610853,74.21188172072172L70.17555148336092,71.20705171853304L70.55612871732713,84.95136672854423L70.89174324010743,76.69735838919878L71.10852774046792,74.15623672068119L71.11173936269549,86.4166850629449L71.17276018501917,67.66432004928589L71.65289770803982,75.49171672165394L71.81026719719038,84.48765839487314L71.82311368610064,85.17394672870637L72.1025248198986,77.27235672295093L72.15551658665339,77.47638838976621L72.66777033194965,77.75461338996887L72.79462940993838,78.75622339069842L72.8893722656515,78.10703172355889L73.56541874455347,84.80298006176947L73.62162213353581,75.45462005496024L73.74045215595564,81.0747650590539L74.35387200142013,84.87717339515686L75.14714269162815,81.29734505921601L75.14874850274192,83.52314506083728L75.19852864726914,77.03122838944196L75.70114752588273,83.78282172769309L75.72041725924811,81.42718339264393L75.72844631481699,85.86023506253957L75.91311459290186,77.17961505621672L76.28405696018538,82.24331005990506L76.44142644933594,82.59572839349508L76.49762983831829,87.58523006379603L76.79791651659542,84.52475506156684L76.94404532794952,83.80137006103992L77.78227872934342,79.1271900576353L77.95088889629046,73.06188505321741L78.63657024187512,90.23764173239469L78.67832133083344,86.6763617298007L78.78430486434301,83.24492006063461L79.00751260915862,77.21671172291039L79.10707289821306,73.91510838717222L79.4410816098796,87.02878006339074L79.4667745877001,84.7287867283821L79.665895165809,88.41990506440402L80.01596198861334,86.11991172939538L80.29858474463886,73.91510838717222L80.34033583359718,84.65459339499475L80.56996682286793,79.55380172461271L80.81565592327647,80.48121839195491L81.04528691254723,76.71590672254561L81.27331209070418,87.01023173004388L81.42425833539963,70.37237671792508L81.44673969099257,87.34410173028706L82.5483261150466,84.50620672822L82.60774112625653,88.51264673113823L83.01401133804322,80.09170339167119L83.30948058297899,86.43523339629174L83.39940600535074,87.2699083968997L83.50860116108788,82.28040672659873L83.83458081718551,80.57396005868912L84.20070575112766,80.9078300589323L84.37252754030227,84.13524006128311L84.55719581838714,91.72150840014218L84.72580598533419,89.79248173207044L84.93777305235332,79.77638172477484L84.95061954126358,85.30378506213425L85.16258660828274,84.80298006176947L85.39864084200859,89.03200006484985L85.54316384224892,79.53525339126587L85.65557062021361,85.24814006209374L85.71016819808219,86.47233006298542L85.75513090926806,85.7860417291522L86.29147182127106,81.29734505921601L86.31074155463642,85.87878339588642L86.34125196579826,84.50620672822L86.36855075473255,92.53763506740331L86.45526455487675,86.43523339629174L86.51467956608666,90.44167339920998L86.57409457729658,89.92232006549835L86.77160934429169,90.1078033989668L86.94021951123874,83.30056506067514L87.29510376738442,85.02556006193161L87.32882580077383,83.5787900608778L87.5568509789308,82.68847006022929L87.67568100135061,84.09814339458943L87.9711502462864,78.58928839057685L88.85434635886615,86.76910339653492L88.88806839225556,88.40135673105716L88.92500204787254,85.15539839535953L89.09521802593338,85.63765506237746L89.2397410261737,87.4368433970213L89.55769162670241,83.76427339434625L89.68294489357737,82.33605172663927L89.84994924941063,84.5989483949542L89.87724803834492,85.87878339588642L89.98483738296827,88.49409839779138L90.32045190574858,86.99168339669704L90.36702042804825,88.34571173101662L90.93547756232687,85.63765506237746L90.9836518957403,84.85862506181002L91.15707949602869,83.89411172777415L91.29036181847255,80.77799172550439L91.38189305195807,93.05698840111494L91.8556073305236,85.2295917287469L92.31647512017886,81.13041005909442L92.75807317646874,93.83601840168238L92.93792402121227,86.60216839641332L93.44536033316719,83.7086283943057L93.84199567827119,87.3997467303276L93.86768865609169,80.44412172526121L94.29322860124377,88.41990506440402L94.48592593489754,84.09814339458943L94.7123453019407,88.49409839779138L95.21817580278184,86.13846006274224L95.8701351149771,85.30378506213425L95.91509782616296,79.01590005755425L95.99699419296583,85.89733172923327L96.15275787100262,85.67475172907115L96.20253801552984,91.49892839998007L96.38078304915958,86.36104006290435L96.82398691656324,77.45784005641939L97.15157238377466,88.29006673097611L97.38762661750052,86.73200672984123L97.41331959532103,89.16183839827777L97.41974283977615,86.76910339653492L97.47273460653092,87.45539173036813L97.50485082880655,95.69085173636675L97.62207504011259,92.22231340050698L98.0187103852166,89.27312839835882L98.34629585242801,89.38441839843988L98.38965275250011,89.12474173158408L98.5020595304648,88.51264673113823L98.82001013099352,81.83524672627449L98.84570310881404,91.05376839965582L99.77546774369345,91.10941339969635L100.28290405564837,88.0303900641203L100.31180865569644,93.14973006784916L100.64902898959055,86.286846729517L101.99791032516691,82.28040672659873L102.14082751429345,85.11830172866583L102.19221346993446,90.05215839892625L102.30783187012672,97.04488007068633L102.35118877019883,85.80459006249906L102.35761201465395,84.09814339458943L102.45877811482218,101.25535174041987L102.76067060421308,87.69652006387712L102.88913549331559,92.98279506772757L103.09307350476584,94.13279173523188L103.10431418256229,97.21181507080794L103.17496987156868,87.65942339718342L103.26007786059908,85.56346172899006L103.71131078357166,91.70296006679536L104.08225315085518,88.14168006420135L104.31991319569482,82.0949233931303L104.87552384106318,94.54085506886244L104.88997614108722,87.80781006395817L104.97508413011762,89.68119173198939L105.19186863047813,89.29167673170566L105.43434610865911,92.40779673397542L106.49418144375483,95.41262673616409L106.51987442157532,99.01100340545177L106.64673349956406,89.92232006549835L106.78483325534926,93.53924506813289L107.97634510177507,91.92554006695747L108.07269376860194,88.79087173134089L108.52874412491586,97.0263317373395L108.61385211394628,93.29811673462392L108.6636322584735,86.36104006290435L108.72144145856964,87.88200339734554L108.7840680920071,91.72150840014218L109.00567002570895,92.8715050676465L109.11004774810473,88.41990506440402L109.14698140372171,88.9207100647688L109.31719738178252,94.85617673575878L109.48580754872958,92.2779584005475L109.55967485996352,83.33766172736883L110.03338913852903,89.08764506489038L110.55046031716665,99.0666484054923L111.23774747386508,95.8392384031415L111.36460655185381,93.09408506780863L111.56693875219028,92.1110234004259L112.41641283138063,89.27312839835882L112.4967033870697,89.55135339856147L112.64604382065137,91.1279617330432L112.67173679847188,91.16505839973688L112.71991113188531,97.0263317373395L112.83713534319135,95.09730506926775L113.41683315526643,92.9086017343402L113.72193726688491,94.93037006914616L113.97886704508993,88.0303900641203L114.22776776772605,85.6562033957243L114.37710820130772,92.92715006768704L114.4654278125657,91.53602506667376L115.2940263472769,94.87472506910562L115.30687283618715,90.53441506594419L115.5445328810268,86.75055506318807L115.62000600337453,84.15378839462997L116.0872970374849,87.97474506407976L116.18525151542558,87.80781006395817L116.43736386028925,87.91910006403923L116.71356337185965,91.83279840022325L117.0732650613467,87.90055173069238L117.12625682810148,86.02717006266117L117.37194592851003,93.70618006825447L117.39603309521675,97.00778340399265L117.97573090729183,94.44811340212821L118.3579139523718,95.13440173596143L118.36915463016827,99.30777673900127L118.3755778746234,93.91021173506975L118.38200111907852,95.17149840265513L118.60842048612172,99.32632507234811L118.67907617512809,90.8311883994937L118.9456408200158,94.98601506918669L119.00345002011194,92.61182840079069L119.02753718681866,94.26263006865977L119.21702289824485,88.04893839746714L119.93963789944648,101.1440617403388L120.12591198864513,99.04810007214546L120.3346674334367,98.58439173847437L120.40692893355687,95.50536840289831L120.74575507856474,90.14490006566048L120.91597105662558,97.89810340464115L121.30778896838825,98.49165007174015L121.32063545729848,94.11424340188503L121.58077685773108,99.58600173920392L121.66588484676149,92.94569840103388L122.58280299273066,97.82391007125378L122.85579088207352,96.89649340391159L122.87827223766644,98.0464900714159L123.01797780456542,98.06503840476275L123.3054179939323,99.54890507251025L123.35840976068708,96.2658500701189L123.64584995005396,98.2134250715375L124.12759328418836,95.67230340301991L124.13722815087105,100.51341840654611L124.42466834023793,94.5223067355156L124.8678722076416,97.1561700707674L125.72698115351464,93.52069673478603L125.95982376501294,90.70135006606579L126.14609785421159,92.8715050676465L126.282591798883,94.50375840216874L126.40784506575795,83.5787900608778L126.45120196583007,95.13440173596143L126.47850075476434,93.70618006825447L127.28301212276882,98.56584340512752L127.35848524511655,91.94408840030432L127.5527883898841,96.28439840346574L127.88679710155063,93.72472840160131L127.93497143496408,95.35698173612356L128.7523292918788,97.8795550712943L128.76196415856148,101.36664174050092L128.79729200306468,98.13923173815012L128.941815003305,96.41423673689366L129.2276493815581,95.02311173588038L130.39989149461852,99.93842007279396L130.513904083697,88.69813006460667L130.7740454841296,104.46421340942383L130.92820335105262,93.66908340156078L131.1626517736647,98.36181173831224L131.89971907489036,92.18521673381329L132.02818396399286,92.55618340075016L132.50510986478594,92.4448934006691L132.55489000931317,93.39085840135813L133.0799902435197,106.76420674443246L133.3208619105869,101.40373840719461L133.63560088888804,99.6601950725913L133.85720282258987,98.7698750719428L133.96960960055458,94.94891840249299L133.97121541166834,93.85456673502922L134.10610354522598,96.82230007052422L134.35982170120346,95.56101340293884L134.67134905727704,99.01100340545177L134.86886382427215,107.04243174463511L135.04550304678813,100.8472884067893L135.24944105823835,105.03921174317598L135.70870303677984,96.69246173709631L135.72476114791763,100.92148174017667L135.99132579280536,98.54729507178068L136.3156996377892,99.04810007214546L136.88736839429538,100.8472884067893L136.9628415166431,104.31582674264908L137.21655967262055,104.46421340942383L137.26633981714778,96.89649340391159L137.45903715080155,91.46183173328639L137.52648121758037,98.52874673843384L137.63246475108994,104.55695507615805L137.95041535161866,105.94808007717133L138.1784405297756,93.72472840160131L138.5782874971072,103.70373174220323L139.1387155758169,101.5706734073162L139.3635291317463,100.21664507299661L139.6220647210651,99.75293673932552L139.667027432251,98.15778007149697L139.73928893237112,105.96662841051817L140.41212378904555,94.07714673519135L141.73370633568763,102.96179840832949L141.7626109357357,96.21020507007837L141.9183746137725,99.15939007222653L142.00027098057535,102.18276840776205L142.25880656989415,101.08841674029827L142.80317653746604,97.23036340415477L142.89791939317917,102.86905674159527L143.19178282700116,98.1763284048438L143.2142641825941,106.50453007757665L143.64783318331507,102.12712340772153L143.68155521670448,96.58117173701525L144.07176731735336,100.64325673997402L144.19862639534207,98.6400367385149L144.38650629565453,97.36020173758268L145.26488497489294,91.88844340026378L145.45437068631915,109.65774674654007L145.57641233096652,91.2207033997774L145.9923174094359,101.42228674054145L146.12238810965218,99.54890507251025L146.81609851080577,100.38358007311821L147.01843071114223,98.71423007190228L147.06018180010054,104.26018174260855L147.24645588929917,97.89810340464115L147.49375080082154,102.64647674143315L147.58367622319327,100.34648340642453L147.66557258999612,112.01338508158922L147.70090043449932,106.0593700772524L147.75389220125408,100.92148174017667L147.79403747909862,95.2456917360425L148.2115483686818,95.91343173652888L148.21475999090936,98.6400367385149L148.37855272451506,98.80697173863649L148.3833701578564,104.72389007627964L148.63066506937872,102.85050840824842L148.89562390315265,107.98839674532414L149.1364955702199,102.25696174114942L149.35488588169417,101.25535174041987L149.627873771037,101.66341507405042L149.8510815158526,106.65291674435139L150.60741855044364,97.93520007133483L150.61544760601254,100.64325673997402L150.69092072836028,107.35775341153145L150.78726939518717,106.0222734105587L150.82420305080416,103.35131340861321L151.24653137372863,105.37308174341918L151.2577720515251,101.84889840751886L152.39308050896855,105.03921174317598L152.82664950968956,107.58033341169357L153.3051812215964,96.9892350706458L153.33408582164446,105.1319534099102L153.46255071074697,106.0593700772524L154.04224852282206,103.0916367417574L154.31684222327868,101.42228674054145L154.5079337458187,99.9940650728345L154.8499715130541,103.20292674183845L154.93186787985695,106.65291674435139L155.16310468024147,102.07147840768098L155.2385778025892,100.03116173952817L155.42645770290162,103.24002340853214L155.61273179210028,103.20292674183845L155.62397246989676,102.94325007498264L156.08162863732443,111.08596841424703L156.28396083766089,105.89243507713078L156.61475792709984,96.69246173709631L157.0515385500484,102.81341174155473L157.21051385031276,100.8472884067893L157.5862736509376,106.70856174439191L157.70349786224364,105.65130674362183L157.7950290957292,102.31260674118995L158.6139927637577,105.46582341015339L158.72318791949485,108.47065341234207L158.846835375256,106.93114174455404L158.86931673084894,114.62870008349418L158.9319433642864,101.05132007360459L158.98332931992744,102.42389674127102L159.47149589851696,111.12306508094073L159.64652930991915,107.28356007814406L159.933969499286,110.7706467473507L160.54096610029538,107.67307507842779L160.63089152266716,107.71017174512149L160.63731476712226,115.59321341753005L160.74169248951807,109.86177841335535L160.84607021191385,105.28034007668495L161.20737771251467,97.23036340415477L161.23307069033518,104.61260007619858L161.46430749071968,104.14889174252748L161.506058579678,104.90937340974808L161.56547359088793,109.7133917465806L162.18049924746617,103.9448600757122L162.21100965862803,103.03599174171687L162.37480239223376,106.52307841092347L162.79873652627202,114.4246684166789L162.98019318212934,108.95291007936001L163.03639657111168,113.01499508231879L163.71565467224121,110.3069384136796L164.97461058544584,108.60049174576999L165.0292081633144,108.2295250788331L165.15606724130313,114.05370174974203L165.51898055301774,113.03354341566562L165.60248273093436,105.74404841035604L165.82729628686377,98.80697173863649L166.21750838751262,114.96257008373738L166.62217278818557,111.95774008154869L166.88070837750436,116.61337175160646L167.26931466703942,111.71661174803972L167.32070062268045,113.60854174941778L167.63704541209538,106.57872341096402L167.6611325788021,113.97950841635465L167.96944831264813,106.39324007749558L168.10594225731958,109.02710341274738L168.19265605746375,109.76903674662113L168.3179093243387,112.08757841497659L168.64228316932255,106.26340174406766L168.69366912496355,112.19886841505766L168.75308413617344,111.90209508150815L168.88154902527597,109.2867800796032L169.12402650345697,103.8150217422843L169.42591899284787,112.42144841521979L169.4756991373751,116.29805008471013L169.52869090412986,108.84162007927895L169.71175337110097,106.20775674402714L169.81291947126917,110.36258341372013L170.1918908941216,106.7456584110856L170.23845941642125,109.91742341339588L170.9418046842575,108.91581341266632L171.46851072957782,114.81418341696262L171.48938627405695,108.11823507875204L171.60500467424922,106.7456584110856L171.83463566351995,109.17549007952213L172.4528729423258,119.19159008681774L172.54440417581137,107.59888174504042L172.71462015387218,110.10290674686432L172.81899787626796,112.69967341542244L172.89125937638815,111.67951508134604L173.1530065879345,112.2174167484045L173.64759641097916,111.60532174795866L174.13576298956872,102.73921840816736L174.50991697907978,111.90209508150815L174.73633634612295,114.22063674986363L175.4541339139832,118.56094675302506L175.59062785865467,112.60693174868823L175.61632083647515,111.38274174779654L176.22974068193966,114.90692508369685L176.25703947087396,112.55128674864768L176.46579491566553,111.08596841424703L176.5958656158818,110.23274508029223L176.69542590493626,115.37063341736794L177.0197997499201,112.06903008162976L177.36183751715555,116.63192008495332L178.36386365215512,109.04565174609422L178.39597987443076,112.19886841505766L178.72677696386972,110.140003413558L179.0061880976677,112.55128674864768L179.2470597647349,108.8230717459321L179.27917598701055,110.86338841408491L179.2839934203519,114.1278950831294L179.4204873650233,118.56094675302506L179.42530479836464,111.21580674767495L180.00179098821215,112.73677008211612L180.04354207717049,114.4617650833726L181.02148104546336,117.33675675213337L181.11622390117645,120.63836008787155L181.65898805763456,114.23918508321046L181.81475173567136,111.71661174803972L182.21299289188917,109.10129674613476L182.90349167081516,110.80774341404438L183.67267519431644,118.37546341955661L183.7433308833228,114.36902341663837L183.92318172806634,113.64563841611147L184.32142288428412,116.70611341834068L184.49324467345872,115.6488584175706L184.75980931834644,109.89887508004904L184.9637473297967,114.73999008357524L185.18374345238473,115.24079508394004L185.2736688747565,112.6811250820756L185.32505483039748,108.47065341234207L185.43906741947598,108.80452341258525L186.04927564271293,119.04320342004299L186.19219283183944,116.81740341842175L186.22912648745643,113.14483341574669L186.7574383438905,117.85611008584499L187.13319814451535,111.56822508126497L187.23757586691116,117.42949841886758L187.90880491247177,114.36902341663837L188.13040684617363,108.26662174552679L188.2428136241383,108.3964600789547L188.35522040210301,109.54645674645901L188.54791773575676,115.44482675075531L188.61857342476316,119.56255675375462L188.8369637362374,116.52063008487224L188.92849496972298,111.73516008138657L189.0714121588495,112.69967341542244L189.1581259589937,119.52546008706094L189.2865908480962,113.20047841578722L189.46323007061218,111.4569350811839L189.7089191710207,115.70450341761112L189.82614338232673,116.00127675116062L190.1344591161728,122.15932342231274L190.2468658941375,117.03998341858387L190.3255506387128,108.359363412261L191.1798421512445,115.66740675091744L191.90406296355988,119.48836342036724L192.07427894162075,114.86982841700315L192.0774905638483,124.9415734243393L192.51105956456925,112.81096341550351L193.15338401008182,123.12383675634861L193.60622274416818,116.72466175168753L193.64315639978514,119.84078175395727L193.90329780021773,121.04642342150211L194.07511958939233,113.75692841619254L194.16986244510545,112.10612674832343L194.18431474512948,120.15610342085361L194.29832733420795,114.55450675010681L194.41876316774156,107.65452674508094L194.55204549018544,113.5714450827241L194.67890456817415,120.34158675432205L194.8410914906661,112.56983508199454L194.8732077129417,119.32142842024564L194.99524935758907,122.08513008892535L195.08678059107464,109.69484341323376L195.10444451332623,121.41739008843899L195.78530842556953,124.51496175736189L195.81742464784514,116.07547008454799L196.40193989326158,122.60448342263699L196.72631373824544,108.02549341201782L196.77769969388643,119.7294917538762L196.86441349403066,122.28916175574065L197.00893649427096,120.32303842097521L197.32206966145833,118.64441425308586L197.37184980598556,120.00771675407887L197.46016941724352,113.34886508256197L197.5163728062259,126.31415009200572L197.53243091736368,120.08191008746624L197.84556408455106,117.20691841870546L198.2566517296791,115.481923417449L198.34497134093706,116.81740341842175L199.03547011986308,118.20852841943503L199.56378197629718,121.49158342182636L199.6569190208965,116.27950175136328L200.2510691329956,114.86982841700315L200.41807348882887,123.66173842340707L200.44055484442183,115.1480534172058L200.47106525558365,117.44804675221444L200.5369035112487,122.71577342271804L200.5593848668416,118.00449675261974L200.58347203354833,120.58271508783102L200.6043475780275,123.95851175695658L200.66697421146498,118.63514008641243L200.87572965625657,120.3972317543626L201.15192916782695,121.62142175525427L201.42331124605602,122.47464508920908L201.70593400208153,118.449656752944L201.85366862454944,118.69078508645296L201.96928702474167,122.60448342263699L201.99176838033463,124.10689842373132L202.6694206703504,120.99077842146158L202.76095190383595,118.85772008657455L202.95846667083106,125.44237842470407L203.24108942685658,116.81740341842175L203.4016705382347,123.25367508977652L203.5670690829542,123.36496508985758L204.1034099949572,125.27544342458248L205.16485114116668,127.13027675926685L205.22908358571794,119.97062008738519L205.28207535247273,120.3972317543626L205.57754459740852,118.26417341947555L206.26483175410695,125.64641009151936L206.48482787669502,121.69561508864163L207.3070031669511,119.67384675383568L207.5382399673356,121.99238842219114L207.53984577844938,124.49641342401505L207.63298282304868,116.09401841789483L207.95414504580498,119.41417008697988L208.08100412379372,125.34963675796986L208.46961041332878,119.8593300873041L208.8566108917501,125.91536092504859L209.06215471431412,127.18592175930739L209.11514648106893,125.40528175801039L209.42667383714252,121.75126008868219L209.5230225039694,125.34963675796986L209.6964501042578,120.60126342117786L209.75425930435392,122.45609675586223L209.78476971551578,130.52462176173924L209.9389275824388,121.17626175493002L210.6727832614369,125.88753842502832L210.7386215171019,124.73754175752401L210.87993289511468,120.87948842138051L211.23642296237418,127.38995342612266L211.4821120627827,123.49480342328548L211.78561036328742,121.75126008868219L211.83057307447328,121.12061675488948L212.72179824262193,128.4564825935662L213.03332559869554,119.96134592071175L213.09595223213302,130.95123342871665L213.41550864377552,125.59076509147883L214.08994931156371,120.65690842121839L214.3163686786069,128.75325592711567L214.51870087894335,129.51373759433628L214.7627841682381,132.54639009654522L215.14657302443186,127.14882509261369L215.64758609193166,130.38550926163794L215.91575654793314,128.35446676015854L215.9286030368434,131.23873259559275L216.49545436000824,129.6899467611313L216.93865822741193,118.35691508620977L217.0237662164423,123.32786842316389L217.59704078406227,122.97545008957385L217.61631051742765,122.71577342271804L218.01294586253167,122.36335508912802L218.02418654032815,124.81173509091138L218.19440251838896,128.5584984269738L218.45293810770775,126.2214084252715L218.5974611079481,127.29721175938845L219.11774390881328,127.92785509318114L219.3923376092699,130.07946176141502L219.4710223538452,123.99560842365027L219.53204317616886,128.48430509358644L219.58664075403743,126.18431175857782L219.64766157636112,128.09479009330272L219.71028820979862,126.36979509204627L219.89656229899725,127.77946842640638L219.95918893243473,128.64196592703462L220.0218155658722,125.05286342442035L220.04429692146516,124.49641342401505L220.0715957103994,130.1165584281087L220.24502331068783,126.88914842575788L220.331737110832,121.86255008876324L221.01581264530287,129.76414009451867L221.32091675692135,128.41011176019907L221.50719084611998,125.92463509172202L221.8604692911519,134.41049759790303L221.90703781345155,124.90447675764561L222.64731673690477,126.5552784255147L223.0600101931466,135.3750109319389L223.10657871544626,132.43510009646417L223.2045331933869,131.0068784287572L223.6926997719765,126.33269842535258L223.96247603909177,128.7996267604828L224.7798338960065,119.93352342069149L224.80392106271321,128.11333842664956L225.28084696350626,131.59115092918276L226.1849186205652,126.49035925880075L226.28126728739207,129.17059342741965L226.72768277702332,125.79479675829411L226.7292885881371,130.2834934282303L226.90753362176682,126.72221342563628L226.9524963329527,128.6790625937283L227.00067066636615,134.04880509763956L227.0665089220312,135.70888093218207L227.25278301122984,132.82461509674786L227.76021932318474,136.1447667658329L227.8276633899636,134.56815843135118L227.88547259005972,136.16331509917973L228.35436943528387,138.11089010059834L228.4041495798111,128.9294650939107L228.87465223614905,124.38512342393398L229.02399266973072,131.79518259599806L229.0432624030961,134.6238034313917L229.21187257004314,132.56493842989207L229.7401844264772,125.92463509172202L230.60892823903296,136.24678259924053L230.64746770576372,123.40206175655126L230.7004594725185,129.46736676096916L231.40219892924097,132.11050426289438L231.50818246275054,138.53750176757575L231.55314517393643,140.6891084358096L232.0910918970532,132.4165517631173L232.37853208642008,134.85565759822725L232.45721683099532,133.88187009751798L232.46203426433667,135.31009176522494L232.47969818658828,137.6379076002538L232.55035387559465,132.85243759676814L232.9116613761955,124.53351009070875L233.30829672129948,136.46008843272924L235.16140274660322,131.43349009573458L235.55161484725213,132.60203509658575L235.94985600346988,128.83672342717648L236.0349639925003,141.29192926958203L236.20999740390246,138.97338760122656L236.4235702820354,132.86171176344158L236.71903952697116,135.57904259875417L236.9245833495352,137.85121343374252L237.0096913385656,136.71976509958506L237.07713540534442,137.27621509999037L237.25216881674663,139.09395176798105L237.26340949454305,135.69960676550866L237.31479545018408,140.0862876020372L237.36618140582507,133.2975975970924L237.46413588376575,137.2112959332764L237.49304048381381,137.34113426670433L237.8398956843906,139.2052417680621L238.14821141823663,131.91574676275252L238.3152157740699,139.01975843459368L238.41477606312432,141.54233176976442L238.6941871969223,132.26816509634256L239.02819590858883,140.52217343568802L239.5003043760406,139.752417601794L239.56453682059183,132.60203509658575L239.77650388761097,136.38589509934187L239.90175715448592,143.89797010481357L239.91781526562372,135.90363843232393L239.9370849989891,133.28832343041898L239.94993148789936,139.1125001013279L239.99489419908525,142.3770067703724L240.07197313254676,135.74597759887575L240.14102301043934,137.6750042669475L240.3449610218896,144.85320927217603L240.58904431118435,135.64396176546813L240.75123123367626,137.71210093364118L240.980862222947,139.64112760171292L240.98567965628834,131.61897342920304L241.13662590098383,135.21735009849073L241.3791033791648,137.61935926690697L242.0005522801982,132.30526176303624L242.04872661361162,133.10284009695053L242.35864815857144,135.5512200987339L242.45499682539833,135.0782375983894L242.49514210324287,131.68389259591697L243.26593143785794,141.8762017700076L243.28359536010953,135.27299509853125L243.56942973836263,136.94234509974717L243.6063633939796,131.92502092942595L243.65614353850683,138.66734010100365L243.8841687166638,138.54677593424915L243.90665007225672,140.4294317689538L244.89582971834605,134.68872259810567L245.16881760768888,143.97216343820094L245.55421227499644,138.5189534342289L245.57990525281693,140.71693093582988L245.79668975317742,141.28265510290862L246.01989749799304,136.50645926609636L246.19974834273657,135.65323593214154L246.48558272098967,139.52056343495846L246.53696867663066,146.5874784401059L246.65258707682293,132.7967925967276L247.07009796640608,136.1818634325266L247.30615220013195,137.46169843345882L247.89869650111729,132.6205834299326L247.91957204559645,138.0088742671907L248.05606599026785,135.21735009849073L248.33065969072447,146.17941510647535L248.62612893566026,138.12943843394518L248.66306259127722,140.02136843532324L248.67109164684612,145.4838526059687L248.70320786912177,140.9858817693591L248.87342384718258,142.65523177057506L249.42582287032337,139.51128926828503L249.88829647109245,140.9024142692983L250.30098992733426,144.24111427173017L250.84214827267857,142.7572476039827L250.95616086175707,143.17458510428668L251.081414128632,135.7274292655289L251.58724462947316,138.5560501009226L251.59527368504206,141.24555843621494L251.6193608517488,141.5794284364581L252.14927851929664,134.64235176473855L252.20066447493767,137.3225859333575L252.51700926435257,143.21168177098036L252.8863458205223,139.01048426792025L253.01962814296618,141.6999926032126L253.05013855412798,142.30281343698502L253.2155370988475,142.48829677045345L253.30706833233305,147.54271760746838L253.6635583995925,142.14515260353684L253.96866251121097,144.84393510550262L254.43113611198004,144.73264510542154L254.47609882316587,144.3709526051581L254.6141985789511,135.43993009865284L255.2260126133018,144.56571010529996L255.261340457805,136.8681517663598L255.73826635859808,141.68144426986575L255.97110897009637,143.46208427116275L256.0449762813303,144.76974177211522L256.8896329271793,130.63591176182032L256.9538653717306,141.42176760300993L256.9667118606408,145.51167510598899L257.00203970514406,136.81250676631927L257.01809781628185,140.16048093542457L257.1401394609292,144.75119343876838L257.19473703879777,145.25199843913316L257.3344426056968,142.9241826041043L257.384222750224,140.80039843589068L258.1341365403599,137.71210093364118L258.41836510749926,147.09755760714413L258.51792539655366,136.82178093299268L258.8920793860647,142.5532159371674L258.9017142527474,143.86087343811988L259.87483578769894,145.67861010611057L259.9053461988608,145.98465760633349L259.9631553989569,145.36328843921422L260.11891907699373,139.4556442682445L260.42884062195355,145.4003851059079L260.45613941088783,140.73547926917672L260.4577452220016,147.1810251072049L260.93788274502225,142.3862809370458L260.9956919451184,149.2027934420109L261.34736457903654,144.10200177162886L261.5737839460797,148.8781976084411L262.0458924135314,141.95966927006842L262.2963989472813,138.23145426735283L262.52602993655205,137.99960010051728L262.66412969233727,138.9919359345734L262.68018780347506,145.15925677239895L262.9066071705182,140.95805926933883L262.9788686706384,147.42215344071388L263.01901394848295,142.96127927079797L263.2213461488194,147.644733440876L263.3337529267841,139.84515926852822L263.60513500501315,141.50523510307073L263.71593597186404,138.9919359345734L263.8106788275772,146.0681251063943L264.00177035011717,146.01248010635376L264.20089092822604,143.71248677134514L264.2346129616154,147.11610594049097L265.4084608857897,138.58387260094287L265.94159017556507,145.27982093915344L265.95925409781665,142.8499892707169L266.10056547582946,139.8822559352219L266.1631921092669,148.72981094166636L266.22903036493193,143.10966593757271L266.45544973197514,145.76207760617137L267.06565795521203,144.35240427181125L267.20536352211104,140.36451260223984L267.6822894229041,148.4979567748308L268.645776091173,147.86731344103814L268.7421247579998,148.23828010797502L268.75818286913767,136.12621843248604L268.95890925836034,144.01853427156806L269.87743321544326,139.29798343479632L270.0797654157798,144.48224260523915L270.2387407160441,146.60602677345275L270.45713102751836,148.17336094126105L270.6530399833997,141.356848436296L270.746177027999,140.87459176927806L270.85697799484996,144.29675927177072L270.86340123930506,147.58908844083547L271.025588161797,145.5209492726624L271.1636879175822,139.61330510169267L271.18777508428894,148.1919092746079L272.09184674134787,142.72942510396243L272.27330339720515,146.76368760690093L272.47884721976914,144.4915167719126L272.5029343864759,143.8237767714262L272.61534116444057,144.52861343860627L272.8048268758668,138.33347010076045L272.88672324266963,142.26571677029133L272.9975242095205,142.57176427051425L273.0039474539757,146.42054343998433L273.20627965431214,148.01570010781288" fill="none"></path></g></g></g></g></g></g><g transform="translate(40, 178)" clip-path="url(#clip_1)"><clipPath id="clip_1"><rect width="289" height="21"></rect></clipPath><g><g><line x1="0" y1="0" x2="0" y2="5" style="visibility: inherit;" fill="rgb(0, 0, 0)" stroke="rgb(204, 204, 204)" stroke-width="1px"></line><line x1="32.11622227562798" y1="0" x2="32.11622227562798" y2="5" style="visibility: inherit;" fill="rgb(0, 0, 0)" stroke="rgb(204, 204, 204)" stroke-width="1px"></line><line x1="64.23244455125597" y1="0" x2="64.23244455125597" y2="5" style="visibility: inherit;" fill="rgb(0, 0, 0)" stroke="rgb(204, 204, 204)" stroke-width="1px"></line><line x1="96.34866682688394" y1="0" x2="96.34866682688394" y2="5" style="visibility: inherit;" fill="rgb(0, 0, 0)" stroke="rgb(204, 204, 204)" stroke-width="1px"></line><line x1="128.46488910251193" y1="0" x2="128.46488910251193" y2="5" style="visibility: inherit;" fill="rgb(0, 0, 0)" stroke="rgb(204, 204, 204)" stroke-width="1px"></line><line x1="160.58111137813992" y1="0" x2="160.58111137813992" y2="5" style="visibility: inherit;" fill="rgb(0, 0, 0)" stroke="rgb(204, 204, 204)" stroke-width="1px"></line><line x1="192.69733365376788" y1="0" x2="192.69733365376788" y2="5" style="visibility: inherit;" fill="rgb(0, 0, 0)" stroke="rgb(204, 204, 204)" stroke-width="1px"></line><line x1="224.8135559293959" y1="0" x2="224.8135559293959" y2="5" style="visibility: inherit;" fill="rgb(0, 0, 0)" stroke="rgb(204, 204, 204)" stroke-width="1px"></line><line x1="256.92977820502387" y1="0" x2="256.92977820502387" y2="5" style="visibility: inherit;" fill="rgb(0, 0, 0)" stroke="rgb(204, 204, 204)" stroke-width="1px"></line><line x1="289.04600048065186" y1="0" x2="289.04600048065186" y2="5" style="visibility: inherit;" fill="rgb(0, 0, 0)" stroke="rgb(204, 204, 204)" stroke-width="1px"></line></g><g transform="translate(0, 8)"><text style="text-anchor: middle; visibility: hidden; font-family: &quot;Helvetica Neue&quot;, sans-serif; font-size: 12px; font-weight: 200;" x="0" y="0" dx="0em" dy="0.95em" fill="rgb(50, 49, 63)" stroke="none" stroke-width="1px">-20k</text><text style="text-anchor: middle; visibility: inherit; font-family: &quot;Helvetica Neue&quot;, sans-serif; font-size: 12px; font-weight: 200;" x="32.11622227562798" y="0" dx="0em" dy="0.95em" fill="rgb(50, 49, 63)" stroke="none" stroke-width="1px">0</text><text style="text-anchor: middle; visibility: hidden; font-family: &quot;Helvetica Neue&quot;, sans-serif; font-size: 12px; font-weight: 200;" x="64.23244455125597" y="0" dx="0em" dy="0.95em" fill="rgb(50, 49, 63)" stroke="none" stroke-width="1px">20k</text><text style="text-anchor: middle; visibility: inherit; font-family: &quot;Helvetica Neue&quot;, sans-serif; font-size: 12px; font-weight: 200;" x="96.34866682688394" y="0" dx="0em" dy="0.95em" fill="rgb(50, 49, 63)" stroke="none" stroke-width="1px">40k</text><text style="text-anchor: middle; visibility: hidden; font-family: &quot;Helvetica Neue&quot;, sans-serif; font-size: 12px; font-weight: 200;" x="128.46488910251193" y="0" dx="0em" dy="0.95em" fill="rgb(50, 49, 63)" stroke="none" stroke-width="1px">60k</text><text style="text-anchor: middle; visibility: inherit; font-family: &quot;Helvetica Neue&quot;, sans-serif; font-size: 12px; font-weight: 200;" x="160.58111137813992" y="0" dx="0em" dy="0.95em" fill="rgb(50, 49, 63)" stroke="none" stroke-width="1px">80k</text><text style="text-anchor: middle; visibility: hidden; font-family: &quot;Helvetica Neue&quot;, sans-serif; font-size: 12px; font-weight: 200;" x="192.69733365376788" y="0" dx="0em" dy="0.95em" fill="rgb(50, 49, 63)" stroke="none" stroke-width="1px">100k</text><text style="text-anchor: middle; visibility: inherit; font-family: &quot;Helvetica Neue&quot;, sans-serif; font-size: 12px; font-weight: 200;" x="224.8135559293959" y="0" dx="0em" dy="0.95em" fill="rgb(50, 49, 63)" stroke="none" stroke-width="1px">120k</text><text style="text-anchor: middle; visibility: hidden; font-family: &quot;Helvetica Neue&quot;, sans-serif; font-size: 12px; font-weight: 200;" x="256.92977820502387" y="0" dx="0em" dy="0.95em" fill="rgb(50, 49, 63)" stroke="none" stroke-width="1px">140k</text><text style="text-anchor: middle; visibility: hidden; font-family: &quot;Helvetica Neue&quot;, sans-serif; font-size: 12px; font-weight: 200;" x="289.04600048065186" y="0" dx="0em" dy="0.95em" fill="rgb(50, 49, 63)" stroke="none" stroke-width="1px">160k</text></g><line x1="0" y1="0" x2="289.04600048065186" y2="0" fill="rgb(0, 0, 0)" stroke="rgb(204, 204, 204)" stroke-width="1px"></line></g></g></g></g></svg>