<svg viewBox="0 0 330 200" xmlns="http://www.w3.org/2000/svg"><g><g><g><g><g><line x1="51.27199935913086" y1="178.0640001296997" x2="46.27199935913086" y2="178.0640001296997" style="visibility: inherit;" fill="rgb(0, 0, 0)" stroke="rgb(204, 204, 204)" stroke-width="1px"></line><line x1="51.27199935913086" y1="161.87636375427246" x2="46.27199935913086" y2="161.87636375427246" style="visibility: inherit;" fill="rgb(0, 0, 0)" stroke="rgb(204, 204, 204)" stroke-width="1px"></line><line x1="51.27199935913086" y1="145.68872737884521" x2="46.27199935913086" y2="145.68872737884521" style="visibility: inherit;" fill="rgb(0, 0, 0)" stroke="rgb(204, 204, 204)" stroke-width="1px"></line><line x1="51.27199935913086" y1="129.50109100341797" x2="46.27199935913086" y2="129.50109100341797" style="visibility: inherit;" fill="rgb(0, 0, 0)" stroke="rgb(204, 204, 204)" stroke-width="1px"></line><line x1="51.27199935913086" y1="113.31345462799072" x2="46.27199935913086" y2="113.31345462799072" style="visibility: inherit;" fill="rgb(0, 0, 0)" stroke="rgb(204, 204, 204)" stroke-width="1px"></line><line x1="51.27199935913086" y1="97.12581825256346" x2="46.27199935913086" y2="97.12581825256346" style="visibility: inherit;" fill="rgb(0, 0, 0)" stroke="rgb(204, 204, 204)" stroke-width="1px"></line><line x1="51.27199935913086" y1="80.93818187713624" x2="46.27199935913086" y2="80.93818187713624" style="visibility: inherit;" fill="rgb(0, 0, 0)" stroke="rgb(204, 204, 204)" stroke-width="1px"></line><line x1="51.27199935913086" y1="64.75054550170898" x2="46.27199935913086" y2="64.75054550170898" style="visibility: inherit;" fill="rgb(0, 0, 0)" stroke="rgb(204, 204, 204)" stroke-width="1px"></line><line x1="51.27199935913086" y1="48.56290912628177" x2="46.27199935913086" y2="48.56290912628177" style="visibility: inherit;" fill="rgb(0, 0, 0)" stroke="rgb(204, 204, 204)" stroke-width="1px"></line><line x1="51.27199935913086" y1="32.37527275085449" x2="46.27199935913086" y2="32.37527275085449" style="visibility: inherit;" fill="rgb(0, 0, 0)" stroke="rgb(204, 204, 204)" stroke-width="1px"></line><line x1="51.27199935913086" y1="16.187636375427246" x2="46.27199935913086" y2="16.187636375427246" style="visibility: inherit;" fill="rgb(0, 0, 0)" stroke="rgb(204, 204, 204)" stroke-width="1px"></line><line x1="51.27199935913086" y1="0" x2="46.27199935913086" y2="0" style="visibility: inherit;" fill="rgb(0, 0, 0)" stroke="rgb(204, 204, 204)" stroke-width="1px"></line></g><g transform="translate(41.27199935913086, 0)"><text style="text-anchor: end; visibility: hidden; font-family: &quot;Helvetica Neue&quot;, sans-serif; font-size: 12px; font-weight: 200;" x="0" y="178.0640001296997" dx="0em" dy="0.3em" fill="rgb(50, 49, 63)" stroke="none" stroke-width="1px">0.3</text><text style="text-anchor: end; visibility: inherit; font-family: &quot;Helvetica Neue&quot;, sans-serif; font-size: 12px; font-weight: 200;" x="0" y="161.87636375427246" dx="0em" dy="0.3em" fill="rgb(50, 49, 63)" stroke="none" stroke-width="1px">0.35</text><text style="text-anchor: end; visibility: hidden; font-family: &quot;Helvetica Neue&quot;, sans-serif; font-size: 12px; font-weight: 200;" x="0" y="145.68872737884521" dx="0em" dy="0.3em" fill="rgb(50, 49, 63)" stroke="none" stroke-width="1px">0.4</text><text style="text-anchor: end; visibility: inherit; font-family: &quot;Helvetica Neue&quot;, sans-serif; font-size: 12px; font-weight: 200;" x="0" y="129.50109100341797" dx="0em" dy="0.3em" fill="rgb(50, 49, 63)" stroke="none" stroke-width="1px">0.45</text><text style="text-anchor: end; visibility: hidden; font-family: &quot;Helvetica Neue&quot;, sans-serif; font-size: 12px; font-weight: 200;" x="0" y="113.31345462799072" dx="0em" dy="0.3em" fill="rgb(50, 49, 63)" stroke="none" stroke-width="1px">0.5</text><text style="text-anchor: end; visibility: inherit; font-family: &quot;Helvetica Neue&quot;, sans-serif; font-size: 12px; font-weight: 200;" x="0" y="97.12581825256346" dx="0em" dy="0.3em" fill="rgb(50, 49, 63)" stroke="none" stroke-width="1px">0.55</text><text style="text-anchor: end; visibility: hidden; font-family: &quot;Helvetica Neue&quot;, sans-serif; font-size: 12px; font-weight: 200;" x="0" y="80.93818187713624" dx="0em" dy="0.3em" fill="rgb(50, 49, 63)" stroke="none" stroke-width="1px">0.6</text><text style="text-anchor: end; visibility: inherit; font-family: &quot;Helvetica Neue&quot;, sans-serif; font-size: 12px; font-weight: 200;" x="0" y="64.75054550170898" dx="0em" dy="0.3em" fill="rgb(50, 49, 63)" stroke="none" stroke-width="1px">0.65</text><text style="text-anchor: end; visibility: hidden; font-family: &quot;Helvetica Neue&quot;, sans-serif; font-size: 12px; font-weight: 200;" x="0" y="48.56290912628177" dx="0em" dy="0.3em" fill="rgb(50, 49, 63)" stroke="none" stroke-width="1px">0.7</text><text style="text-anchor: end; visibility: inherit; font-family: &quot;Helvetica Neue&quot;, sans-serif; font-size: 12px; font-weight: 200;" x="0" y="32.37527275085449" dx="0em" dy="0.3em" fill="rgb(50, 49, 63)" stroke="none" stroke-width="1px">0.75</text><text style="text-anchor: end; visibility: hidden; font-family: &quot;Helvetica Neue&quot;, sans-serif; font-size: 12px; font-weight: 200;" x="0" y="16.187636375427246" dx="0em" dy="0.3em" fill="rgb(50, 49, 63)" stroke="none" stroke-width="1px">0.8</text><text style="text-anchor: end; visibility: hidden; font-family: &quot;Helvetica Neue&quot;, sans-serif; font-size: 12px; font-weight: 200;" x="0" y="0" dx="0em" dy="0.3em" fill="rgb(50, 49, 63)" stroke="none" stroke-width="1px">0.85</text></g><line x1="51.27199935913086" y1="0" x2="51.27199935913086" y2="178.0640001296997" fill="rgb(0, 0, 0)" stroke="rgb(204, 204, 204)" stroke-width="1px"></line></g></g><g transform="translate(51, 0)" clip-path="url(#clip_0)"><clipPath id="clip_0"><rect width="278" height="178"></rect></clipPath><g><g><g><line x1="0" y1="0" x2="0" y2="178.0640001296997" fill="rgb(0, 0, 0)" stroke="rgb(60, 60, 60)" stroke-width="1px" opacity="0.25"></line><line x1="30.96977784898546" y1="0" x2="30.96977784898546" y2="178.0640001296997" fill="rgb(0, 0, 0)" stroke="rgb(60, 60, 60)" stroke-width="1px" opacity="0.25"></line><line x1="61.93955569797092" y1="0" x2="61.93955569797092" y2="178.0640001296997" fill="rgb(0, 0, 0)" stroke="rgb(60, 60, 60)" stroke-width="1px" opacity="0.25"></line><line x1="92.90933354695638" y1="0" x2="92.90933354695638" y2="178.0640001296997" fill="rgb(0, 0, 0)" stroke="rgb(60, 60, 60)" stroke-width="1px" opacity="0.25"></line><line x1="123.87911139594183" y1="0" x2="123.87911139594183" y2="178.0640001296997" fill="rgb(0, 0, 0)" stroke="rgb(60, 60, 60)" stroke-width="1px" opacity="0.25"></line><line x1="154.8488892449273" y1="0" x2="154.8488892449273" y2="178.0640001296997" fill="rgb(0, 0, 0)" stroke="rgb(60, 60, 60)" stroke-width="1px" opacity="0.25"></line><line x1="185.81866709391275" y1="0" x2="185.81866709391275" y2="178.0640001296997" fill="rgb(0, 0, 0)" stroke="rgb(60, 60, 60)" stroke-width="1px" opacity="0.25"></line><line x1="216.78844494289822" y1="0" x2="216.78844494289822" y2="178.0640001296997" fill="rgb(0, 0, 0)" stroke="rgb(60, 60, 60)" stroke-width="1px" opacity="0.25"></line><line x1="247.75822279188367" y1="0" x2="247.75822279188367" y2="178.0640001296997" fill="rgb(0, 0, 0)" stroke="rgb(60, 60, 60)" stroke-width="1px" opacity="0.25"></line><line x1="278.72800064086914" y1="0" x2="278.72800064086914" y2="178.0640001296997" fill="rgb(0, 0, 0)" stroke="rgb(60, 60, 60)" stroke-width="1px" opacity="0.25"></line></g><g><line x1="0" y1="178.0640001296997" x2="278.72800064086914" y2="178.0640001296997" fill="rgb(0, 0, 0)" stroke="rgb(60, 60, 60)" stroke-width="1px" opacity="0.25"></line><line x1="0" y1="161.87636375427246" x2="278.72800064086914" y2="161.87636375427246" fill="rgb(0, 0, 0)" stroke="rgb(60, 60, 60)" stroke-width="1px" opacity="0.25"></line><line x1="0" y1="145.68872737884521" x2="278.72800064086914" y2="145.68872737884521" fill="rgb(0, 0, 0)" stroke="rgb(60, 60, 60)" stroke-width="1px" opacity="0.25"></line><line x1="0" y1="129.50109100341797" x2="278.72800064086914" y2="129.50109100341797" fill="rgb(0, 0, 0)" stroke="rgb(60, 60, 60)" stroke-width="1px" opacity="0.25"></line><line x1="0" y1="113.31345462799072" x2="278.72800064086914" y2="113.31345462799072" fill="rgb(0, 0, 0)" stroke="rgb(60, 60, 60)" stroke-width="1px" opacity="0.25"></line><line x1="0" y1="97.12581825256346" x2="278.72800064086914" y2="97.12581825256346" fill="rgb(0, 0, 0)" stroke="rgb(60, 60, 60)" stroke-width="1px" opacity="0.25"></line><line x1="0" y1="80.93818187713624" x2="278.72800064086914" y2="80.93818187713624" fill="rgb(0, 0, 0)" stroke="rgb(60, 60, 60)" stroke-width="1px" opacity="0.25"></line><line x1="0" y1="64.75054550170898" x2="278.72800064086914" y2="64.75054550170898" fill="rgb(0, 0, 0)" stroke="rgb(60, 60, 60)" stroke-width="1px" opacity="0.25"></line><line x1="0" y1="48.56290912628177" x2="278.72800064086914" y2="48.56290912628177" fill="rgb(0, 0, 0)" stroke="rgb(60, 60, 60)" stroke-width="1px" opacity="0.25"></line><line x1="0" y1="32.37527275085449" x2="278.72800064086914" y2="32.37527275085449" fill="rgb(0, 0, 0)" stroke="rgb(60, 60, 60)" stroke-width="1px" opacity="0.25"></line><line x1="0" y1="16.187636375427246" x2="278.72800064086914" y2="16.187636375427246" fill="rgb(0, 0, 0)" stroke="rgb(60, 60, 60)" stroke-width="1px" opacity="0.25"></line><line x1="0" y1="0" x2="278.72800064086914" y2="0" fill="rgb(0, 0, 0)" stroke="rgb(60, 60, 60)" stroke-width="1px" opacity="0.25"></line></g></g></g><g><g><line x1="0" y1="275.1898183822632" x2="278.72800064086914" y2="275.1898183822632" fill="rgb(0, 0, 0)" stroke="rgb(153, 153, 153)" stroke-width="1.5px"></line></g></g><g><g><line x1="30.96977784898546" y1="0" x2="30.96977784898546" y2="178.0640001296997" fill="rgb(0, 0, 0)" stroke="rgb(153, 153, 153)" stroke-width="1.5px"></line></g></g><g><g><g><g><g><path style="fill: none;" stroke="rgb(0, 119, 187)" stroke-width="2px" d="M36.65273208427429,181.66021608121244L36.886553907034134,168.12428988249258L37.09559990751479,168.31976493708072L37.65460439768897,166.5117182025268L37.78312897576227,165.96801779304639L37.92558995386759,165.42636355879208L37.951914265039235,165.2874960057655L38.21051191007826,164.45199079479036L38.38394266603258,163.87520461503343L38.667316133350795,163.01479073777412L38.91971982282003,154.40289245946457L39.24645097912682,153.86620636833206L39.268129823621116,153.8792980354812L39.83177978047265,152.78660730440157L40.050116714308,152.3521079477414L40.11670173668331,152.2275457151625L40.24522631475661,151.96417569701572L40.57040898217095,151.20346698864645L40.59983027112749,151.13164598602083L41.149543827946985,143.83285460545295L41.34310493950314,143.2641182140141L41.36168680621253,143.1636813104427L41.58312071783278,142.8794760031628L41.7565514737871,142.3743441955756L42.04921587446001,141.75917408709094L42.40072285304599,140.9655473489462L42.521504986657035,140.74595550972137L42.52615045333438,140.73448890828652L43.04489423230489,134.2076463776474L43.099091343540614,134.07812316634232L43.45988925548129,133.6351080695052L43.636416989220514,133.455317827877L43.699905033810936,133.33775381367224L43.91979045653873,132.99493087265085L44.12883645701938,132.64321742103544L44.14432134594388,132.62642340397286L44.28833081294166,132.42289528735125L44.717262236150106,127.47951963774715L44.805526103019716,127.2862958462234L45.30878499306573,126.66055910822226L45.630870682695175,126.4403728735737L45.76404072744581,126.34984556458008L45.78417108304765,126.35759844525433L45.98702312795851,126.31062409243677L47.072513841565446,121.73462501688994L47.19639295296139,121.58780157864226L47.26297797533671,121.61082438750762L47.3945995311949,121.58822048971587L47.66248810958863,121.62869852293215L47.85140375446744,121.5992530302919L47.85604922114479,121.59213334978037L47.95050704358419,121.62961171206689L48.03412544377645,121.59220276694153L48.16110153295729,121.51594056390073L48.82695175671047,117.53996893882895L48.879600379053755,117.49092442935643L49.063870557255214,117.61617081654619L49.178458735296466,117.74112710210332L49.503641402710805,117.90691802865842L49.51138384717306,117.89892798208123L49.80559673673842,118.01119423992733L50.00070633718702,117.98864160710087L50.90966931705475,114.44834717942231L51.152782073169284,114.70892814094768L51.19459127326541,114.84606920557682L52.02458131961823,114.77605852952888L52.060196564144555,114.7790302797824L52.35440945370992,111.34930152969632L52.99083838850657,111.91905997614889L53.103878077655374,111.95693591297338L53.172011588923134,111.95820278210937L53.34079687820011,111.92408708273457L53.63655825665792,112.03207252225418L53.68301292343139,112.04532423623147L53.85489519049327,112.16371283856026L54.00045314638349,112.13877396438441L54.929546481853066,109.87347697380534L54.982195104196336,109.85591154910557L55.3801567495558,109.73709923913597L55.92522483969794,110.0411483330482L56.24266506265005,107.7292601923965L57.07265510900286,107.7957252492854L57.39628928752475,108.0221799464757L57.44429244319068,108.04253141439494L57.784959999529526,108.14334875048262L57.81902675516341,108.17062929185983L58.134918489223054,106.73194945354747L58.15659733371735,106.58722320258317L59.540946403567,106.55519737652094L60.570691517045766,104.76751208189316L60.65276142834557,104.76527031493315L61.213314407412206,104.91890223263093L61.38209969668919,104.88149353575508L61.40377854118347,104.88596342681316L61.52301218590206,104.88718191222381L61.93181325350867,104.86558968446677L62.021625609270735,102.14300732381525L62.03556200930277,102.32932571383128L62.15324716512892,102.50678796048125L62.31738698772854,102.60071589182965L62.32977489886814,102.70452327527092L62.43971761023204,103.02250356147793L62.620890810648596,103.06185160215287L62.77419121100108,103.21783772570541L62.834582277806604,103.26282792784588L63.145828545188905,103.42039968391676L63.15047401186625,103.42452041868033L63.26351370101504,103.53826387944119L63.61192370181613,103.74163269018044L63.711026990932886,103.71406250049351L63.84729401346843,103.75078637407924L63.98201254711151,99.7287368489235L64.29790428117116,101.2542135305586L64.80116317121717,101.6791639246975L65.41591326151953,102.21159283796405L65.54753481737772,102.37828286039917L65.5908925063663,102.41375509229735L66.79871384247674,100.64936772457045L66.81419873140123,100.62811654619081L66.882332242669,100.6953148713137L66.92259295387268,100.76037949276288L67.02789019855923,100.83145746437704L67.14402686549292,100.94564018869409L67.24622713239458,100.98723518689341L67.42120637724135,101.0179159049489L67.62250993325975,101.14781604959386L67.6395433110767,101.1634582858925L67.67051308892567,101.19351613766239L68.03750495643617,99.88681653122275L68.36113913495807,99.90214531176375L68.5701851354387,100.21071334021681L68.57328211322361,100.22222479238287L68.63212469113668,100.27873949373401L69.09512286997901,100.24587440619504L69.24687478143903,100.322474691142L69.25926269257863,100.30967905330898L69.52869975986481,100.36937719136546L69.57979989331564,100.39996503181635L70.07376785000694,97.45712791508699L70.19609847251044,97.8275740741795L70.28745931716496,98.01721500942983L70.9393731408861,98.79985685200958L70.99357025212183,98.91235841104053L71.10815843016306,98.95383772513567L71.6996811870787,95.22565676394373L72.46463469994863,97.52175571078193L72.46618318884107,97.55851773607195L72.51418634450701,97.65080159326581L72.99886336784364,97.86700870385695L73.01744523455302,97.88692588935456L73.02518767901526,97.8821680402637L73.20326390164693,98.0771556134745L73.56096483580272,98.26509046922911L73.71271674726273,95.50979335379141L73.76691385849846,95.20170538402739L74.05648128138648,96.09939962635087L74.19739377059936,96.54337284407737L75.00570497245789,97.19383918141084L75.16829630616506,97.31011828698239L75.8295010632409,95.28482250116198L75.86976177444458,95.2946950788863L75.97196204134623,95.35147179180008L76.18720199739668,95.84602245578566L76.28320830872853,95.87941897295659L76.605293998358,96.40770528875305L76.63006982063717,96.39646493673742L76.82208244330089,96.37585441121634L77.15965302185482,96.72117146287405L77.43218706692589,96.87551700831641L77.47244777812958,91.93572047347097L77.69388168974983,94.66571887835731L77.93080049029456,95.08366129039345L78.15223440191481,95.16656078709183L78.37211982464261,95.37186377556793L78.51767778053284,95.48576476990492L78.53935662502712,95.51755930873492L79.60162000524733,93.60994501549241L79.65891409426796,93.998682278403L80.05068178405762,94.63721939149501L80.33560374026828,94.7981125335193L80.42231911824544,94.84689314079677L80.527616362932,94.95835598038785L80.8419596080992,94.98777541728178L81.19501507557763,95.1583456393586L81.3607033870697,91.94198896115329L81.53877960970138,92.81054743458526L81.70137094340855,93.24728598394701L81.90577147721184,93.60879644091038L81.91815938835144,93.63267175757905L82.12255992215475,93.79184616824315L82.35018778934479,94.01655190868117L82.48955178966521,94.0487645113327L82.59794601213667,94.07313665880751L82.65059463447994,94.08247941630883L82.69395232346854,94.13359320323923L83.21114761354659,94.53700190313522L83.22972948025598,94.55333212604997L83.25915076921251,94.58967822292936L83.28547508038415,86.01790079289664L83.36909348057641,90.92200231964989L83.42638756959703,90.77709781567656L83.48368165861766,91.64783947891775L83.67414579238893,92.44549052253208L83.8367371260961,92.86796499268237L84.17895317132738,93.0738464987221L84.21147143806881,93.09055892632115L84.43135686079661,93.26184121802854L84.54594503883784,93.44802060286447L84.83086699504852,93.69137979949882L85.68253588589562,91.8705450989523L85.71505415263705,91.74395648106793L85.75066939716339,91.84556024895718L85.91480921976301,92.1071927197888L86.05417322008346,92.39686761360072L86.3607740207884,92.67015189046431L86.48155615439946,92.86011653938121L86.64259899921417,92.98997852132992L86.66892331038582,92.98607011409284L86.77267206617992,93.0463205583015L87.09630624470182,93.10809198091053L87.14121242258284,93.12177894929677L87.68937749050988,91.0599125160185L87.73583215728335,91.05589308048417L87.90306895766788,91.40650516722648L88.03159353574118,91.48880577397144L88.11985740261078,91.62050981697477L88.57666162588332,92.14806673176162L89.02107793801626,92.53612806991381L89.4469123834398,91.19564396991257L89.62034313939412,91.41953988221664L90.1096656294081,91.47932490928137L90.49214238584307,91.76666039100832L90.51691820812225,91.75749101128923L90.92726776462132,91.95651619531678L91.11308643171523,90.07841672003724L91.33142336555056,91.17432696616868L91.8191973666721,91.26869501213207L92.4478838570065,91.23515634598037L92.49124154599507,91.22890838207235L92.57021447950999,91.30976361257716L92.72041790207756,91.34505921290159L92.7684210577435,91.36125604528559L92.94030332480536,91.47031714732711L93.36768625912136,89.43232349659483L93.68357799318102,89.84842395650037L93.91120586037106,90.08377842228987L93.93598168265025,90.12057842224499L93.94217563822005,90.12509659086892L93.99327577167087,90.15228836827751L94.02424554951985,90.19539288430742L94.13728523866865,90.24921919090953L94.51976199510362,90.47938220740451L94.83565372916328,90.7039836070871L94.87746292925941,90.7294511212716L94.98585715173085,88.14243553144975L95.29245795243581,89.34567408545622L95.317233774715,89.3428164629121L96.21380884344313,89.95521184223688L96.7031313334571,90.426804170069L96.73100413352118,90.44134300580681L97.05618680093554,87.82050287853231L98.35691747059293,89.40501569802313L98.4947329820209,89.57011723529229L98.54428462657928,89.60120068161702L98.65577582683562,89.62846500466063L98.69758502693178,89.66448966487896L98.70377898250156,89.66976142075666L98.80133378272588,84.80051787407103L99.09244969450633,87.70098133227366L99.21632880590226,87.87028099896104L99.41298689524334,87.92432971806426L99.42382631749047,87.97071556550057L99.49195982875824,88.07920165553483L99.57402974005804,88.08280352551498L100.00915511883629,88.72189108702648L100.36685605299208,88.94632463759638L100.59603240907458,89.07432060627603L101.13180956586203,86.91221308930716L101.14574596589406,86.88036192142337L101.22781587719388,87.01311196273522L101.43686187767453,87.46106368434876L101.67068370043437,87.78630523085258L102.69268636945088,84.34733207393113L102.71746219173006,83.90593302810647L102.83979281423358,85.59827516674679L102.9729628589842,85.60532912890422L104.12194161718156,87.4817260895749L104.21485095072852,87.63637369641165L104.65462179618412,84.22732055093198L104.73669170748393,85.21700915634791L104.78469486314985,85.90805151906835L104.84044046327803,85.96002568627328L104.90083153008355,86.30974036939647L105.11452299724155,86.88509445712427L105.21517477525076,86.9893816561346L105.25079001977709,86.92888470408845L105.41492984237671,86.8813458952422L105.57752117608389,87.016431534114L105.64875166513654,86.96624143406247L106.10555588840909,87.23850705008307L106.60416931177775,84.86020066229952L107.26692255774604,86.07166885702476L107.38925318024953,86.21954918223015L107.58436278069814,86.32935993170561L108.4035134048038,86.90400384622545L108.48093784942627,86.0578709608912L108.62494731642406,84.71234461432248L108.64972313870325,84.6545318654923L108.69617780547672,84.41348127271475L108.80921749462551,84.75661537842215L109.36822198479969,85.6973613045365L109.66243487436506,85.91731988650572L109.91019309715695,86.16789335554225L110.15020887548658,86.23911054563776L110.29421834248436,86.32056305953874L110.37938523156907,86.42685847004155L111.1784055000729,84.97739968348647L111.1907934112125,84.9631229359908L111.41996976729499,85.25412397104861L111.4927487452401,85.32725312444495L111.94335901294284,85.77484748470515L112.03781683538224,85.82941654722931L112.28092959149679,86.04430415399325L112.54726968099806,83.97735983398023L112.8941311929067,84.37417628594274L112.94523132635753,84.45261361239073L113.18215012690227,84.66146331144023L113.205377460289,84.71723342672752L113.76438195046319,84.99863399993058L114.13292230686612,85.28878332819936L114.14376172911325,85.30190564130264L114.14995568468306,85.31947255226028L114.15614964025285,85.31861344378903L114.37448657408821,83.37087116530311L114.44262008535597,83.21946462186666L114.69966924150255,83.51263641177668L114.75541484163074,83.7667750650992L114.77864217501747,83.84288049837079L114.96136386432647,83.94622247378953L115.65818386592865,84.48837310079323L115.83780857745276,84.60666696772688L116.03911213347118,84.64378396300766L116.10879413363138,84.71027371245381L116.43552528993818,82.4080338855111L116.59966511253782,82.90746127461638L116.97749640229543,83.30083672706802L116.98988431343501,83.37689371733993L117.2407395140118,83.49426588569999L117.32280942531162,83.63423225570675L118.20699658290015,80.9034546853982L118.47023969461654,81.65996511996278L118.49191853911081,81.81811474754176L118.6266370727539,81.92805895606821L118.90381658450232,82.72031450621445L118.95491671795314,82.74358513117578L119.23209622970157,82.94446241527226L119.69664289743635,83.31031307409665L119.70593383079104,83.34127998234514L119.98311334253947,83.56624236680096L120.41049627685547,81.88128688321794L121.23893783431582,82.70022610389918L121.46346872372096,82.98489434220473L121.64309343524509,83.15243719483277L121.77471499110327,83.20196125022878L121.89549712471431,83.27703574422146L121.93730632481046,83.33671451956286L121.96363063598208,83.38216194839221L122.73942357109918,81.61292879612355L122.81220254904429,81.65183022875989L122.99956970503065,81.84208357619387L123.3216553946601,82.36997213433048L123.36811006143358,82.41820011653431L124.15629090769026,79.87762931959878L124.16558184104495,79.75239389535007L124.19964859667884,80.05095880280517L124.33901259699928,80.56157693216774L124.61464361985524,81.06210410718889L125.7450405113432,81.88629682165424L125.85498322270712,81.99544493968097L126.1058384232839,80.13573634626768L126.25449335695903,79.92931898516048L126.48057273525662,80.3083344263098L127.19132913689083,81.0783069496566L127.31520824828678,81.25742176898831L127.77510944934421,81.57634306807768L127.82311260501015,81.65407862098498L128.32946847284106,79.7687928687664L128.56174180670845,79.79067050905307L128.8652456296285,80.28308404692706L129.0789370967865,80.4171913567185L129.18733131925794,80.50237564954273L129.1888798081504,80.50151963128424L129.31895287511614,80.5755356757838L129.56361412012313,80.72551707696755L129.86402096525828,78.16563505244038L130.05448509902953,79.0356162174381L130.22481887719897,79.31983323335223L130.42147696654,79.56128884137458L130.86434478978052,79.86010368201998L130.879829678705,79.86202054261832L131.1368788348516,80.20448812536415L131.44967359112633,80.37746747963892L132.00093563683828,78.24608433395429L132.0737146147834,78.29927168862709L132.31837585979036,78.86980687265994L132.36637901545632,78.85632220554346L132.55219768255023,79.2934190207673L132.6172342160331,79.40369205819489L132.71943448293473,79.39882383139685L133.02603528363971,79.54073444681042L133.24592070636749,79.76572271543243L133.63149444058735,79.98869319841994L134.17191706405214,78.14717908394788L134.38870550899506,78.51825436806716L134.6380122206794,78.82366437728926L134.68136990966798,78.88233579508484L134.7510519098282,78.88607932936839L135.39986875576443,79.50251294752836L136.67427511425018,78.12292962299632L136.70214791431428,78.10241959217201L136.85235133688184,78.31682368309845L136.93132427039677,78.37152172559388L137.18063098208108,78.50649962022948L137.7055687166214,76.47481585088607L137.7969295612759,76.62741010140721L138.08030302859413,77.11167925136525L138.10198187308842,77.14192857091322L138.5200738740497,77.43891391453937L138.55259214079115,77.49404951628482L138.92887494165632,78.00102892432655L139.0512055641598,78.02114439260542L139.2323787645764,78.11901795534682L140.07940218874614,76.78447066224942L140.26212387805515,76.81314361984964L140.3798090338813,76.91156157495263L140.78086765702565,77.33013693045805L140.90629525731404,77.4361421438841L141.57524245885213,75.21745676263319L141.77035205930076,75.71322041410275L141.81061277050443,75.84586373580574L141.99023748202853,76.17745623207904L142.22870477146574,76.4332703437273L142.31542014944287,76.61360586589338L142.39439308295778,76.685736442001L142.42845983859166,76.66686314227432L142.4795599720425,76.68985855581742L142.51827219435373,76.74755290588932L142.92087930639056,76.91972459356441L142.92397628417544,76.92391321617161L143.08192215120528,76.9656934610789L143.08656761788262,76.9641159242539L143.3250349073198,77.07180873971811L143.58053557457393,74.9663187391502L143.81280890844133,75.3578782668842L144.02340339781443,75.51610223479844L144.2866465095308,75.82913561963638L144.50188646558124,76.10682264328722L145.23122473392488,76.4469437096068L145.2389671783871,76.47015500862538L145.31174615633222,72.82853001962603L145.4046554898792,73.49051841171011L145.44027073440552,73.66159857597111L145.84752331311967,74.76214664226917L145.85836273536682,74.81551129898165L146.95314438232845,75.81490169987956L147.37123638328976,72.6939611836155L147.83268607323964,74.04042551378299L147.86055887330372,74.03226631793922L147.98443798469967,74.29145281798455L148.54344247487387,74.78006941519213L148.8082340754827,74.96825228113083L148.99250425368416,75.10394771899792L149.32233238777584,72.72501924577873L149.40130532129075,72.83771378187551L149.62428772180346,73.1929915733353L149.69706669974855,73.39665766998799L149.87823990016514,73.48526293888926L150.05786461168924,73.71187232048128L150.0687040339364,73.74416827858923L150.51002336828444,74.1560903509329L150.70513296873304,74.28240848087603L151.0241216805776,74.63554598009134L151.44531065932378,72.92726138313667L151.59861105967627,73.20246715511861L151.9609574605094,73.50452159012715L152.0739971496582,73.53781836604101L152.16226101652782,73.66375081272868L152.95199035167693,74.13982763162973L153.0572875963635,72.2583011872224L153.1765212410821,72.15703796429776L153.19820008557636,71.95402518136963L153.25859115238188,72.08404222842624L153.30814279694027,72.35822205958364L153.77888342024485,72.8655805142407L153.94766870952185,73.02784553670091L154.22484822127024,73.24682456924943L154.81017702261607,73.61476706505744L154.89689240059323,73.64068015409099L154.90308635616302,73.63923032445189L155.00373813417224,70.57115017077605L155.10438991218143,70.83549299307818L155.45279991298253,72.04022799097902L155.47757573526172,72.1996049867088L155.70055813577437,72.22205689455527L155.74081884697807,72.27900367315169L155.79811293599872,72.35338994692212L156.39118418180678,72.82657226265243L156.42060547076332,72.85898508860704L156.57855133779316,72.86716477192033L156.98735240539975,70.13267813413567L157.1623316502465,71.01131359982591L157.21652876148227,71.12954680005895L157.8715395629883,71.87502920439567L159.08555485466852,69.80433937948871L159.13820347701179,69.90401554993502L159.2605340995153,69.97070717121663L159.61049258920883,70.45675680107553L159.69101401161618,70.54428548245957L159.90780245655907,70.82577023601318L160.28408525742424,71.20551508590192L160.67430445832147,71.49975740796926L160.9236111700058,69.02963519082765L161.29834548197852,70.01475596312773L161.3478971265369,70.11736996759423L161.6529494383494,70.36463748187826L161.67617677173612,70.40727943512353L161.9734866390864,70.70228328380495L162.10510819494462,70.81159451449793L162.18872659513687,70.89077833357209L162.3095087287479,70.93885979739859L162.62230348502266,70.98542260929179L162.67185512958105,71.03537676778605L162.72914921860163,68.68659670256035L162.85302832999758,68.4613976972915L163.08685015275745,68.91179538590248L163.3779660645379,69.20170648511468L163.42596922020383,69.1715801379067L163.47706935365466,69.1892014550078L163.65359708739388,69.44335647706582L163.75115188761816,69.54059408970151L164.1165952662362,69.69970229413914L164.16150144411722,69.73120692150574L164.83973957901003,67.65325066393856L165.34764393573337,68.5178097483808L165.36777429133522,68.48017365999502L165.47926549159155,68.6850322188916L165.7006994032118,68.88005956679751L166.29686762680478,69.24128732698364L166.3851314936744,69.35804531622831L166.549271316274,69.42539174360735L166.6499230942832,66.0691257458483L166.71960509444344,66.13425661741816L166.97200878391266,67.42640312652995L167.44894336278702,67.8915768020448L167.91968398609163,68.34456858152424L168.2804818980323,68.63808273737064L168.49881883186765,68.79457513949231L169.19099336679244,67.35136860193558L169.32261492265067,67.43629009493928L169.34739074492984,67.44559814802143L169.93891350184546,67.9414579886335L169.96523781301713,67.97189131458556L170.1665413690355,68.08743398766319L170.29196896932388,68.16714404204114L170.38797528065575,68.21203634967947L170.70077003693052,65.7036105292871L171.0305981710222,66.28259776657292L171.99685523991053,67.30420846691113L172.02782501775954,67.35856023409251L172.34681372960407,67.5598821210531L172.61625079689026,65.46707327321803L172.84852413075765,65.66018158436931L172.87949390860663,65.71655327613205L172.884139375284,65.70280130120445L173.01576093114218,65.82703955684211L173.02040639781953,65.82277017176168L173.5763139102088,66.38712371528716L173.6165746214125,66.44767795001093L174.5596043569141,64.4060905440349L174.65096520156862,64.24069811415323L175.17435444721647,65.05725223530756L175.32455786978403,65.24004644165505L175.70858311511148,65.68599743739392L176.37443333886466,63.86878189376037L177.11615951834784,64.84544602825228L177.18429302961562,64.9264427763821L177.35772378556996,65.06009310038294L177.74174903089735,65.10863422878307L177.90743734238941,65.18214074171301L178.164486498536,65.40008194402375L178.36114458787705,63.184836387879145L178.5732875661426,63.76754516146546L178.66000294411978,64.12634367248246L178.70955458867815,64.2147169721199L178.81949730004203,64.3620671700034L179.40792307917278,64.43400878742673L179.54573859060073,64.38746375626589L179.5813538351271,64.37530993140261L180.0908066807429,64.73239404095266L180.45315308157603,62.658334211818016L180.55380485958523,62.81109798106674L181.20107321662903,63.49987114419213L181.41476468378704,63.66345784012907L181.5231589062585,63.74991465925062L181.63155312872993,63.8559534923922L181.81737179582382,63.915283037882205L181.88550530709162,63.94375262026692L182.0960997964647,62.94915134625637L182.18436366333432,62.07253234347587L182.3221791747623,61.72754809699204L182.40579757495456,61.52367702859496L182.5296766863505,61.692113740860904L182.70001046451995,62.36809806462445L182.93692926506466,62.61598031061163L183.04996895421345,62.61168376984166L183.34727882156375,62.83662852903143L183.4556730440352,62.921619832316054L183.5315489997652,62.97631958357198L184.35534509054818,61.36097537311204L185.0537135810428,61.91962268089992L185.21785340364247,62.14611848065768L185.22095038142734,62.140253959255915L185.63904238238862,62.34619521434361L186.25843793936835,60.23494570753196L186.69511180703907,60.91260666081139L186.73072705156537,60.92316381128913L186.98158225214215,61.15633768541733L187.14727056363424,61.24186550007843L187.23863140828874,61.28827231846938L187.2525678083208,61.27791615520583L187.36251051968466,61.32175808164607L187.4786471866184,61.44395079666913L187.60717176469169,61.586123437606034L187.72950238719517,61.722409693162476L187.88589976533254,61.78319970412922L187.91686954318152,59.59493849744766L188.03455469900766,58.50867658640466L188.12281856587728,59.0222578860989L188.13985194369423,59.09052091924151L188.79641123409272,59.95343962179115L188.8273810119417,59.978839345199674L189.39103096879325,60.56057306770789L189.703825725068,60.7228903654385L189.75337736962635,60.75805047756617L189.83699576981863,57.27973966121225L189.97635977013906,57.98111208007673L190.27831510416667,58.65007345668707L190.3263182598326,58.75457315492332L190.4114851489173,58.76751520269792L190.46568226015305,58.79300691573914L190.48116714907752,58.76661071162785L190.78312248310513,59.06101235045492L191.17953563957212,59.46988327810989L191.26470252865684,59.56582421934907L191.93055275241002,57.11480549055928L192.44000559802586,58.25088751488346L192.52981795378793,58.28572476526655L193.10275884399414,58.78948607789823L193.26380168880885,58.90021018716965L193.28548053330317,58.936109636378575L193.31490182225969,58.93751741015508L193.3783898668501,58.93233416921723L193.4000687113444,58.94482857443353L193.42329604473113,58.94842439616586L193.44342640033298,58.95862457232084L193.5038174671385,58.96736352602986L193.70512102315692,59.07649048142942L193.97146111265818,56.794673002785956L194.23315573548211,57.668427275598546L194.50568978055318,57.80505718294556L194.64815075865852,57.927951252729926L194.75964195891484,57.9487177068777L194.78132080340916,57.96818197434412L195.43478311602277,58.23993454720326L195.52304698289237,58.32328063496999L195.71351111666362,55.40491324646656L195.9860451617347,56.43312263879365L196.14089405097963,56.41800334967742L196.30038840690187,56.695197650609316L196.81758369697997,57.29250446434739L197.8411348548889,55.99757309763099L197.9030744105869,55.971617602166674L197.9541745440377,56.253976036032256L198.2390965002484,56.04640249377432L198.90184974621667,56.5355504533521L199.11399272448222,56.69867797229894L199.90681903741626,55.02785186640044L200.12980143792896,55.29194052826736L200.13134992682137,55.29944636628042L200.22116228258344,55.40172580647709L200.53086006107333,55.48098570502559L200.6531906835768,55.5876240074808L201.0279249955495,55.7451685952131L201.40111081862977,55.913935806019495L201.59931739686328,53.24861969993924L201.65041753031414,53.52100913243157L201.9508243754493,53.73304462734865L202.04373370899623,53.90291244554983L202.21097050938076,54.09866324052824L202.26671610950893,54.19730542282862L202.29613739846548,54.244987521793604L202.44479233214062,54.31402858591605L203.15245175598994,54.735722205006226L203.21593980058034,54.775468787860135L203.35220682311586,54.811491677764664L203.69597135723964,53.02054270339514L203.93289015778433,53.30975462546236L204.22555455845728,53.82176801012771L204.26891224744583,53.93504442341876L205.12832358275517,54.29425365907113L205.42873042789037,51.580189010408645L205.48912149469587,52.08709758344179L205.7972707842933,52.65281449208689L206.44763611912197,53.13628202030809L206.66597305295733,53.246424908582014L206.86108265340596,53.323538109627876L207.09645296505823,53.32294040199049L207.4665418103536,50.88480381132928L207.94967034479777,51.39596156942929L208.2082679898368,51.51543267901053L208.2206559009764,51.52212329460879L208.76727248001097,52.03675435104783L209.194655414327,52.295925516252126L209.27672532562678,50.010231987016226L209.82953586023118,50.7658226734214L209.8481177269406,50.778193635391204L210.23059448337554,51.09720006735277L210.2414339056227,51.099921704726285L210.40557372822232,51.16027476790258L210.65488043990663,51.375376526819466L210.7942444402271,51.40428868631929L211.29595484138065,49.057433203545855L211.5607464419895,49.57300412428572L211.6366223977195,49.835437300137386L211.69546497563255,49.94547355742853L211.74811359797584,49.927717168427876L211.8069561758889,49.96509092198528L211.86734724269445,50.065167916834426L212.04697195421855,50.16111841321086L212.10736302102407,50.19206779133462L212.1677540878296,50.208292152626015L212.18943293232388,50.23032184273828L212.21575724349552,50.24819670091573L212.38299404388005,50.225704677736545L212.4666124440723,50.29571716176761L213.1262687122557,47.88153704428041L213.42048160182105,48.68442509439106L213.60010631334518,48.94573058272459L213.94077386968402,49.423304789432734L213.98568004756504,49.50791795971813L214.69953342698415,49.914541401208425L215.0974950723436,47.336353375058394L215.14240125022462,47.694456993879044L215.23685907266403,47.91169491300056L215.70759969596864,48.40981413542022L215.9677458299001,48.48491951385526L216.7559266761568,48.70109102164278L216.77915400954353,48.713944589800604L217.23905521060095,47.22303073956127L218.1108544570499,47.58886575513537L218.20376379059684,47.68586441229482L218.63424370269774,47.89261698864729L218.6357921915902,47.89641134035148L218.80767445865206,47.95093276399618L218.85103214764064,47.9508475596235L218.89748681441412,44.78358246412162L218.96097485900455,44.45639742005042L219.14059957052868,45.27805235283799L219.62992206054264,46.259080017287545L219.6949585940255,46.295412990542076L219.75070419415368,46.339753933125934L220.20286295074888,46.582496444226535L220.2508661064148,46.637780438634536L220.70457335190244,46.89072995310332L220.8485828189002,45.1789296364895L220.8671646856096,44.64996960369518L221.02975601931678,45.15758359521405L221.5392088649326,45.54030712235152L222.37694135574765,45.93560902473186L222.41410508916644,45.956547363259574L222.46520522261724,45.93960956759781L223.14189486861758,44.75964632466298L223.24409513551925,44.91104156237671L223.28745282450782,44.86998188462488L223.80619660347833,45.05967221588105L224.08337611522677,45.08891620283333L224.15925207095674,45.16779813500983L224.16389753763409,45.15961509301732L224.18093091545106,45.161189099236225L224.2490644267188,45.22081775999476L224.59747442751993,45.32894365231297L224.97995118395488,42.79772069963735L226.76690736584132,41.51946403376613L227.14319016670652,42.67043318743444L227.5272154120339,42.89038960566543L227.60928532333375,42.93796980080049L227.7780706126107,43.04494016436476L227.98401963530648,43.16149102883469L228.26894159151712,43.2440127168864L228.46714816975063,43.277427240690656L228.54921808105044,43.274537718533935L228.6142546145333,42.379060710048236L228.7830399038103,42.212095180706115L228.79387932605744,42.17273652557091L228.84343097061583,41.96083189935575L228.8929826151742,41.75516372274856L228.98744043761357,41.7811343368399L229.01531323767767,41.83848574296974L229.34978683844673,41.95923228627868L229.647096705797,42.14291809881885L229.8081395506117,42.14634718853483L229.90414586194356,42.20890197854928L230.17358292922972,42.201777305788056L230.49566861885918,42.29057829180053L230.9509243532393,41.29763214585461L231.01286390893725,41.100905003233976L231.21726444274054,41.34046097702674L231.3380465763516,41.44409079679298L231.35353146527606,41.41857170342371L231.37211333198545,41.424551157197186L231.38450124312507,41.43686145026271L231.42785893211365,41.35223423651777L231.5021863989512,41.45490158020928L231.56877142132655,41.5496523646581L231.7654295106676,41.55836762322457L232.00079982231986,41.66112810633834L232.15719720045723,41.65623025051141L232.3786311120775,41.6299898963606L232.38327657875485,41.63325877296657L232.52883453464509,40.27248407573856L232.76265635740492,40.21532240434621L233.3619215587828,40.445590312415334L233.40837622555625,40.5287317976688L233.70723458179899,40.70279493092244L233.80014391534593,40.68060479806334L233.83885613765716,40.64251717042751L234.5821308060328,38.61875244455297L234.59916418384975,38.66416392242158L234.87479520670573,39.066851911835926L234.91041045123205,39.16750364341357L234.95841360689798,39.18325378127463L235.1782990296258,39.21414292019233L235.19997787412007,39.2593890826401L236.15384703186882,39.731664861321065L236.4170901435852,38.55253783829531L236.78872747777305,38.878544643494195L236.8135033000522,38.91058937496294L237.02254930053286,39.03225411486048L237.23778925658334,38.919307089440935L237.41122001253763,38.961609702871385L237.68685103539363,39.09412419326185L237.736402679952,39.08494941451298L237.84789388020835,39.172288645407264L238.25050099224512,39.25591732154845L238.47812885943517,37.920086449456335L239.04952126074897,37.86109383943912L239.06965161635082,37.92071912205111L239.201273172209,37.95322628547268L239.46606477281782,38.04599188104578L239.7509867290285,38.09281724862484L239.7866019735548,38.099271089161164L239.79434441801706,38.08079912138507L239.82531419586607,38.065062558285234L239.98945401846566,38.11587578607046L240.5221341974682,36.907234606466915L240.96809899849362,37.2255833132414L241.3660606438531,37.35185926442708L241.88790140060848,37.533945051598295L241.9978441119724,37.610995648956646L242.1186262455834,37.678029456097505L242.60640024670494,36.551197100792194L242.6141426911672,36.50424554998173L242.63737002455395,36.613561490053286L243.1483713590622,36.778515614475765L243.1979230036206,36.834098601551034L243.50297531543308,36.86773296211089L243.85912776069642,36.994502208340464L243.98765233876972,37.04741719314674L244.01707362772623,37.08010232203881L244.1765679836485,35.55404927034559L244.2648318505181,35.60733767697994L244.60859638464186,35.92772164233435L244.90280927420721,35.96644934607306L245.34877407523263,36.21789030154051L245.39213176422118,36.20102269873064L245.52530180897182,36.20937570222506L246.115276076995,35.47958783784523L246.1493428326289,35.44841825421338L246.60924403368634,35.82964323438344L246.83377492309145,35.86482126934686L246.90500541214413,35.91691294958858L247.71951056957246,35.85714087869627L247.78145012527042,35.8670067695908L247.79383803641002,35.85880590359395L247.8279047920439,35.83975621444915L247.8433896809684,35.847793171390975L247.96107483679452,37.3958423354527L248.0137234591378,34.322874924940095L248.1484419927809,34.85360203879918L248.19644514844683,34.92512051066501L248.91958946122065,34.98929061181673L249.19367199518416,35.08752462647698L249.289678306516,35.151337696836435L249.6504762184567,35.15680552369935L249.6597671518114,35.14802825330759L250.59815142063565,34.58562167416994L250.6275727095922,34.579921206481856L250.68331830972036,34.66069540672427L250.83352173228792,34.63025828252273L251.13238008853065,34.73966922428366L251.1587043997023,34.74220091671435L251.16025288859473,34.73642312669139L251.62325106743705,34.768076309674115L251.67899666756523,34.79622067197653L252.01811573501163,33.69297688268833L252.23645266884697,34.07414287070981L252.69170840322707,34.22373624839557L252.93327267044916,34.31697649285451L253.1547065820694,34.342907473904376L253.28787662682004,34.36436025941475L253.30336151574454,34.38143024244005L253.52169844957987,34.39882822099523L253.59138044974011,34.40789059423648L253.63009267205132,34.42144258749744L253.82520227249992,33.908879412554484L253.93359649497137,34.24623174362867L254.1952911177953,33.97982214926466L254.3021368513743,34.01032419224569L254.39349769602882,33.976495788287934L254.5777678742303,33.89522491194984L254.769780496894,34.055736791018745L254.8022987636354,34.054579222985524L255.93424414401585,34.02935150342381L256.44834245630904,33.8762091941434L256.46537583412595,33.93406456886555L256.6016428566615,34.059494047933725L256.662033923467,34.13784049273764L256.7255219680574,34.05692639251333L256.9438589018928,33.93768608832201L257.5322846810235,33.90623425691368L257.6670032146666,33.95489991903281L258.126904415724,33.549893110636816L259.0559977511936,33.834473567622354L259.14890708474053,33.81047218439738L259.16439197366503,33.832063809602346L259.3579530852212,33.8286268613987L260.24368873170215,33.35889889467438L260.4387983321508,33.419684438806456L260.59209873250325,33.44261409099795L260.8026932218764,33.43402989600213L260.99160886675514,33.467499128698165L261.08142122251724,33.4834072858128L261.18826695609624,33.501643746125126L261.194460911666,33.49518816460906L261.3508582898034,33.511305836310896L261.48402833455407,33.577140929716535L261.5072556679408,33.56209051964791L262.3790549143897,33.73722484166129L262.5540341592365,33.6537744696337L262.75224073747,33.6445205574893L262.77546807085673,33.64572985020669L262.88386229332815,33.632386708860025L263.0665839826372,33.671184762764L263.1455569161521,33.62395729028469L263.2524026497311,33.5864176425919L263.2585966053009,33.58186288838792L263.45370620574954,33.553201178247946" fill="none"></path></g></g></g></g><g opacity="0.2"><g><g><g><path style="fill: none;" stroke="rgb(0, 119, 187)" stroke-width="2px" d="M36.65273208427429,181.65051935925328L36.886553907034134,167.79143923826177L37.09559990751479,168.32457170071814L37.65460439768897,166.467258036923L37.78312897576227,165.95464811084605L37.92558995386759,165.413044192376L37.951914265039235,165.2840812298714L38.21051191007826,164.4314455846844L38.38394266603258,163.8610213483181L38.667316133350795,162.99363301948085L38.91971982282003,154.1911244690143L39.24645097912682,153.85300916936978L39.268129823621116,153.8796199617226L39.83177978047265,152.75973786019472L40.050116714308,152.3414235373317L40.11670173668331,152.22448270944335L40.24522631475661,151.9576993850941L40.57040898217095,151.18476103680132L40.59983027112749,151.12987989579233L41.149543827946985,143.65337612888163L41.34310493950314,143.25013289291314L41.36168680621253,143.16121155051883L41.58312071783278,142.87248734806576L41.7565514737871,142.36192292161854L42.04921587446001,141.74404695327576L42.40072285304599,140.94603193735247L42.521504986657035,140.74055571039617L42.52615045333438,140.73420694267747L43.04489423230489,134.04715024984478L43.099091343540614,134.074938169343L43.45988925548129,133.62421425564855L43.636416989220514,133.45089675636154L43.699905033810936,133.33486289529014L43.91979045653873,132.98650080033065L44.12883645701938,132.63456872960228L44.14432134594388,132.62601043634015L44.28833081294166,132.41789049759825L44.717262236150106,127.35796122013392L44.805526103019716,127.2815444415138L45.30878499306573,126.64517213925501L45.630870682695175,126.43495845796758L45.76404072744581,126.34761948321136L45.78417108304765,126.35778908986106L45.98702312795851,126.30946898540026L47.072513841565446,121.62210044945846L47.19639295296139,121.58419116622633L47.26297797533671,121.61139052215185L47.3945995311949,121.58766465616361L47.66248810958863,121.62969388440467L47.85140375446744,121.59852896080076L47.85604922114479,121.59195827566941L47.95050704358419,121.63053331113952L48.03412544377645,121.59128287484828L48.16110153295729,121.51406526382596L48.82695175671047,117.4421991447698L48.879600379053755,117.4897184168284L49.063870557255214,117.61925064573938L49.178458735296466,117.7441997976498L49.503641402710805,117.91099485472125L49.51138384717306,117.89873150552603L49.80559673673842,118.01395488561207L50.00070633718702,117.9880870341625L50.90966931705475,114.36129075906956L51.152782073169284,114.71533586950977L51.19459127326541,114.84944152683818L52.02458131961823,114.7743369555277L52.060196564144555,114.7791033556083L52.35440945370992,111.26496393748107L52.99083838850657,111.93307042975016L53.103878077655374,111.95786728846906L53.172011588923134,111.9582339346291L53.34079687820011,111.92324817209419L53.63655825665792,112.0347279019145L53.68301292343139,112.0456500980506L53.85489519049327,112.16662403369946L54.00045314638349,112.1381607133801L54.929546481853066,109.81777294944686L54.982195104196336,109.85547961243265L55.3801567495558,109.73417762495637L55.92522483969794,110.04862495011162L56.24266506265005,107.67241048401979L57.07265510900286,107.7973596359302L57.39628928752475,108.02774850460332L57.44429244319068,108.04303186032735L57.784959999529526,108.14582786530445L57.81902675516341,108.17130012484449L58.134918489223054,106.6965720804742L58.15659733371735,106.58366436034635L59.540946403567,106.55440985620794L60.570691517045766,104.72355260743507L60.65276142834557,104.76521518951608L61.213314407412206,104.92268006667268L61.38209969668919,104.88057364976635L61.40377854118347,104.88607334216704L61.52301218590206,104.88721187497981L61.93181325350867,104.8650587280465L62.021625609270735,102.07605857724184L62.03556200930277,102.33390731358577L62.15324716512892,102.51115178621853L62.31738698772854,102.60302559505953L62.32977489886814,102.70707591584733L62.43971761023204,103.03032274884367L62.620890810648596,103.06281917692354L62.77419121100108,103.22167345005505L62.834582277806604,103.26393424429193L63.145828545188905,103.42427439922994L63.15047401186625,103.42462174822367L63.26351370101504,103.54106084978775L63.61192370181613,103.74663356257565L63.711026990932886,103.71338454500938L63.84729401346843,103.75168942015104L63.98201254711151,99.62983399174755L64.29790428117116,101.29172525223817L64.80116317121717,101.68961352455335L65.41591326151953,102.2246853522247L65.54753481737772,102.38238179537711L65.5908925063663,102.41462736029484L66.79871384247674,100.60598114995423L66.81419873140123,100.62759397623063L66.882332242669,100.6969672891446L66.92259295387268,100.76197944247065L67.02789019855923,100.83320528335118L67.14402686549292,100.94844796060352L67.24622713239458,100.98825801471799L67.42120637724135,101.01867034883549L67.62250993325975,101.15101031544577L67.6395433110767,101.16384293104738L67.67051308892567,101.19425526516488L68.03750495643617,99.85468457368734L68.36113913495807,99.90252224899018L68.5701851354387,100.21830107862138L68.57328211322361,100.22250786087876L68.63212469113668,100.28012919950493L69.09512286997901,100.24506624830474L69.24687478143903,100.32435830470627L69.25926269257863,100.30936440647702L69.52869975986481,100.37084517836684L69.57979989331564,100.40071719182743L70.07376785000694,97.38476306795428L70.19609847251044,97.83668340596046L70.28745931716496,98.02187831111632L70.9393731408861,98.81910214322056L70.99357025212183,98.91512484281998L71.10815843016306,98.95485770826917L71.6996811870787,95.13398018293083L72.46463469994863,97.57821716029434L72.46618318884107,97.5594217203004L72.51418634450701,97.65307086844268L72.99886336784364,97.87232527215019L73.01744523455302,97.88741565621103L73.02518767901526,97.88205104397457L73.20326390164693,98.08195038986491L73.56096483580272,98.2697118181411L73.71271674726273,95.44204014603474L73.76691385849846,95.19412945034469L74.05648128138648,96.12147407493264L74.19739377059936,96.55429021828378L75.00570497245789,97.2098342552797L75.16829630616506,97.31297760925054L75.8295010632409,95.23502014577298L75.86976177444458,95.29493784719102L75.97196204134623,95.35286794047829L76.18720199739668,95.85818353768695L76.28320830872853,95.88024019878867L76.605293998358,96.4206959358628L76.63006982063717,96.39618853463867L76.82208244330089,96.37534759501501L77.15965302185482,96.72966286578367L77.43218706692589,96.87931239058139L77.47244777812958,91.81425006687641L77.69388168974983,94.73284998667418L77.93080049029456,95.09393856282054L78.15223440191481,95.16859929930571L78.37211982464261,95.37691220971078L78.51767778053284,95.48856561402795L78.53935662502712,95.51834114165695L79.60162000524733,93.56303646729793L79.65891409426796,94.00824139142539L80.05068178405762,94.65292112378415L80.33560374026828,94.8020689222576L80.42231911824544,94.84809266392654L80.527616362932,94.96109686988598L80.8419596080992,94.98849884605784L81.19501507557763,95.16253998908178L81.3607033870697,91.86289822316462L81.53877960970138,92.83190542983357L81.70137094340855,93.2580254564723L81.90577147721184,93.6176860423111L81.91815938835144,93.63325885552992L82.12255992215475,93.79576029309557L82.35018778934479,94.02207745967553L82.48955178966521,94.04955662451266L82.59794601213667,94.07373597390938L82.65059463447994,94.08270915624735L82.69395232346854,94.13485009963917L83.21114761354659,94.54692178919822L83.22972948025598,94.55373368890855L83.25915076921251,94.59057197941002L83.28547508038415,85.80711938068272L83.36909348057641,91.0425949801438L83.42638756959703,90.77353459016899L83.48368165861766,91.66925115916139L83.67414579238893,92.46510489245702L83.8367371260961,92.8783537091615L84.17895317132738,93.07890915870667L84.21147143806881,93.09096988765555L84.43135686079661,93.26605307766067L84.54594503883784,93.45259878445881L84.83086699504852,93.69736404203901L85.68253588589562,91.82577047516838L85.71505415263705,91.74084364620194L85.75066939716339,91.84805870226592L85.91480921976301,92.11362630513715L86.05417322008346,92.40399076672725L86.3607740207884,92.67687199563306L86.48155615439946,92.8647878012398L86.64259899921417,92.99317184875487L86.66892331038582,92.98597400571816L86.77267206617992,93.04780212660171L87.09630624470182,93.10961095031894L87.14121242258284,93.12211551409315L87.68937749050988,91.0092108824133L87.73583215728335,91.05579424190547L87.90306895766788,91.41512677591686L88.03159353574118,91.49082955938322L88.11985740261078,91.62374844098304L88.57666162588332,92.16103944278098L89.02107793801626,92.54567056183555L89.4469123834398,91.16268124614203L89.62034313939412,91.42504551940442L90.1096656294081,91.48079503289773L90.49214238584307,91.77372601760817L90.51691820812225,91.75726553473874L90.92726776462132,91.96141025721909L91.11308643171523,90.03223394605494L91.33142336555056,91.20127557877845L91.8191973666721,91.27101553785246L92.4478838570065,91.23433162468154L92.49124154599507,91.22875474361558L92.57021447950999,91.3117518559502L92.72041790207756,91.34592713749976L92.7684210577435,91.3616543280491L92.94030332480536,91.47299897770519L93.36768625912136,89.382208898626L93.68357799318102,89.85865593502263L93.91120586037106,90.08956582718633L93.93598168265025,90.12148334027667L93.94217563822005,90.12520769337608L93.99327577167087,90.15295701854166L94.02424554951985,90.1964528314229L94.13728523866865,90.25054278861286L94.51976199510362,90.48504195371174L94.83565372916328,90.70950659232517L94.87746292925941,90.73007737162038L94.98585715173085,88.07882039399512L95.29245795243581,89.37526191875146L95.317233774715,89.34274619350526L96.21380884344313,89.97027074500716L96.7031313334571,90.43840070272064L96.73100413352118,90.44170051816106L97.05618680093554,87.75605599015671L98.35691747059293,89.4439791280106L98.4947329820209,89.57417710915956L98.54428462657928,89.6019650286578L98.65577582683562,89.62913543883384L98.69758502693178,89.66537551717943L98.70377898250156,89.6698910540979L98.80133378272588,84.68078237702139L99.09244969450633,87.77230420419666L99.21632880590226,87.87444410551895L99.41298689524334,87.92565878492746L99.42382631749047,87.97185620109327L99.49195982875824,88.08186934627338L99.57402974005804,88.08289209608826L100.00915511883629,88.7376063549325L100.36685605299208,88.95184349539727L100.59603240907458,89.07746804812882L101.13180956586203,86.859046511021L101.14574596589406,86.87957869598358L101.22781587719388,87.01637630801338L101.43686187767453,87.47207889061792L101.67068370043437,87.7943029737994L102.69268636945088,84.26276716023631L102.71746219173006,83.89507895320912L102.83979281423358,85.63989013736911L102.9729628589842,85.60550258699006L104.12194161718156,87.52786699844387L104.21485095072852,87.64017650641586L104.65462179618412,84.14349137522345L104.73669170748393,85.24134576139909L104.78469486314985,85.92504436405329L104.84044046327803,85.96130373956521L104.90083153008355,86.31833991078474L105.11452299724155,86.89924250846185L105.21517477525076,86.99194609545452L105.25079001977709,86.92739707412011L105.41492984237671,86.88017690813946L105.57752117608389,87.01975331211906L105.64875166513654,86.9650072512743L106.10555588840909,87.24520210621472L106.60416931177775,84.80171771833761L107.26692255774604,86.10145905853437L107.38925318024953,86.22318558366966L107.58436278069814,86.332060196037L108.4035134048038,86.91813443428738L108.48093784942627,86.03706441453052L108.62494731642406,84.67925790088225L108.64972313870325,84.65311024052107L108.69617780547672,84.40755379912184L108.80921749462551,84.76505310233301L109.36822198479969,85.72049440108026L109.66243487436506,85.9227287040951L109.91019309715695,86.17405499822348L110.15020887548658,86.24086178801713L110.29421834248436,86.32256599020845L110.37938523156907,86.42947229161132L111.1784055000729,84.94175725430888L111.1907934112125,84.96277186842941L111.41996976729499,85.2612797342058L111.4927487452401,85.32905138231536L111.94335901294284,85.78585390340004L112.03781683538224,85.83075840942251L112.28092959149679,86.04958827547104L112.54726968099806,83.9265333343078L112.8941311929067,84.38393406754835L112.94523132635753,84.4545423991067L113.18215012690227,84.66659895977752L113.205377460289,84.7186048230051L113.76438195046319,85.00555368615687L114.13292230686612,85.29591814774699L114.14376172911325,85.30222832113304L114.14995568468306,85.31990452548052L114.15614964025285,85.31859231817089L114.37448657408821,83.32297586337314L114.44262008535597,83.21574151014285L114.69966924150255,83.51984555415152L114.75541484163074,83.77302437624644L114.77864217501747,83.84475194345124L114.96136386432647,83.9487636699064L115.65818386592865,84.5017046735884L115.83780857745276,84.60957583330719L116.03911213347118,84.64469667600633L116.10879413363138,84.71190870629266L116.43552528993818,82.3514214307502L116.59966511253782,82.9197422759878L116.97749640229543,83.31050989393157L116.98988431343501,83.37876397119909L117.2407395140118,83.4971520865613L117.32280942531162,83.63767405169051L118.20699658290015,80.83630441727587L118.47023969461654,81.67856783556681L118.49191853911081,81.82200367281008L118.6266370727539,81.9307625021795L118.90381658450232,82.73979620007049L118.95491671795314,82.7441573596584L119.23209622970157,82.9494020206189L119.69664289743635,83.31930940177267L119.70593383079104,83.34204146369554L119.98311334253947,83.57177422871383L120.41049627685547,81.83985355165443L121.23893783431582,82.72036395358806L121.46346872372096,82.99189438085159L121.64309343524509,83.1565571010449L121.77471499110327,83.20317905486968L121.89549712471431,83.27888183833602L121.93730632481046,83.33818203043188L121.96363063598208,83.38327950811755L122.73942357109918,81.56942306287102L122.81220254904429,81.65278682136568L122.99956970503065,81.84676193719633L123.3216553946601,82.38295300051414L123.36811006143358,82.41938605052292L124.15629090769026,79.81515626721512L124.16558184104495,79.74931433573738L124.19964859667884,80.05830056282458L124.33901259699928,80.57413311567666L124.61464361985524,81.07441215247628L125.7450405113432,81.90656385561647L125.85498322270712,81.99812890979638L126.1058384232839,80.09000580708539L126.25449335695903,79.92424314841196L126.48057273525662,80.31765447814134L127.19132913689083,81.09724070023071L127.31520824828678,81.26182623175875L127.77510944934421,81.58418539510444L127.82311260501015,81.65599015097452L128.32946847284106,79.72243338305613L128.56174180670845,79.79120848381423L128.8652456296285,80.29519257654694L129.0789370967865,80.42048907745107L129.18733131925794,80.50447034526793L129.1888798081504,80.50149858165493L129.31895287511614,80.5773557424518L129.56361412012313,80.7292051442098L129.86402096525828,78.10268713380447L130.05448509902953,79.05700919690527L130.22481887719897,79.32682217636649L130.42147696654,79.56722627435875L130.86434478978052,79.86745158793748L130.879829678705,79.86206767853469L131.1368788348516,80.21290945936607L131.44967359112633,80.38172107031778L132.00093563683828,78.19367327299484L132.0737146147834,78.30057957439772L132.31837585979036,78.88383642636563L132.36637901545632,78.85599061536847L132.55219768255023,79.3041673031089L132.6172342160331,79.40640369026279L132.71943448293473,79.39870412090181L133.02603528363971,79.54422405210744L133.24592070636749,79.7712552138412L133.63149444058735,79.99417607914917L134.17191706405214,78.10189594998542L134.38870550899506,78.52737917013566L134.6380122206794,78.83117445948325L134.68136990966798,78.88377853486669L134.7510519098282,78.88617138349014L135.39986875576443,79.51767115125358L136.67427511425018,78.08900544288485L136.70214791431428,78.10191524715174L136.85235133688184,78.32209591484254L136.93132427039677,78.37286675942575L137.18063098208108,78.50981874878607L137.7055687166214,76.42485641393502L137.7969295612759,76.63116241904301L138.08030302859413,77.1235875091511L138.10198187308842,77.1426724066398L138.5200738740497,77.44621683282526L138.55259214079115,77.49540530977038L138.92887494165632,78.01349563108171L139.0512055641598,78.02163903526798L139.2323787645764,78.12142468229945L140.07940218874614,76.7516539255339L140.26212387805515,76.8138486925775L140.3798090338813,76.9139816886027L140.78086765702565,77.34042976706884L140.90629525731404,77.43874882946011L141.57524245885213,75.16289892538931L141.77035205930076,75.72541132356515L141.81061277050443,75.84912545683119L141.99023748202853,76.18561014592184L142.22870477146574,76.4395608546695L142.31542014944287,76.61804034594662L142.39439308295778,76.68751014469217L142.42845983859166,76.66639904474006L142.4795599720425,76.69042401680623L142.51827219435373,76.74897161941568L142.92087930639056,76.92395832358922L142.92397628417544,76.92401621508816L143.08192215120528,76.96672084415036L143.08656761788262,76.96407713236478L143.3250349073198,77.07445692370494L143.58053557457393,74.91454439487394L143.81280890844133,75.36750677986129L144.02340339781443,75.5199929881078L144.2866465095308,75.83683316188649L144.50188646558124,76.11365101272123L145.23122473392488,76.45530734238514L145.2389671783871,76.4707257782734L145.31174615633222,72.73898186415886L145.4046554898792,73.50679681479416L145.44027073440552,73.66580546525621L145.84752331311967,74.78920929963715L145.85836273536682,74.81682354463851L146.95314438232845,75.8394768736721L147.37123638328976,72.61721674469096L147.83268607323964,74.07353529239369L147.86055887330372,74.03206568197584L147.98443798469967,74.29782625651023L148.54344247487387,74.79208457741858L148.8082340754827,74.97287972865388L148.99250425368416,75.10728449206023L149.32233238777584,72.66652100463398L149.40130532129075,72.84048495899266L149.62428772180346,73.20172791246955L149.69706669974855,73.40166585269253L149.87823990016514,73.48744175697698L150.05786461168924,73.71744468232373L150.0687040339364,73.74496244149351L150.51002336828444,74.16621958222004L150.70513296873304,74.28551466439922L151.0241216805776,74.64422968908843L151.44531065932378,72.88525438485091L151.59861105967627,73.20923451016735L151.9609574605094,73.51194915820112L152.0739971496582,73.5386371392192L152.16226101652782,73.6668475122374L152.95199035167693,74.15153443865188L153.0572875963635,72.21203414350748L153.1765212410821,72.15454788504553L153.19820008557636,71.94903306375659L153.25859115238188,72.08723936892761L153.30814279694027,72.3649641865793L153.77888342024485,72.87805654181422L153.94766870952185,73.03183566020402L154.22484822127024,73.25220929955799L154.81017702261607,73.62381483134779L154.89689240059323,73.64131736119839L154.90308635616302,73.63919467290339L155.00373813417224,70.49570557683319L155.10438991218143,70.84199322641349L155.45279991298253,72.0698526220749L155.47757573526172,72.20352409316116L155.70055813577437,72.22260899064987L155.74081884697807,72.2804040037729L155.79811293599872,72.35521911758862L156.39118418180678,72.83820789336711L156.42060547076332,72.85978212531087L156.57855133779316,72.86736591167391L156.98735240539975,70.06543665943605L157.1623316502465,71.03291938996585L157.21652876148227,71.13245417383519L157.8715395629883,71.89336073892856L159.08555485466852,69.7534207772369L159.13820347701179,69.90646660330663L159.2605340995153,69.97234712911701L159.61049258920883,70.46870884115401L159.69101401161618,70.54643782708376L159.90780245655907,70.83269199224812L160.28408525742424,71.21485307401394L160.67430445832147,71.50699287490535L160.9236111700058,68.96889448057006L161.29834548197852,70.03898024441379L161.3478971265369,70.11989326278605L161.6529494383494,70.37071783059015L161.67617677173612,70.40832800774434L161.9734866390864,70.7095374768053L162.10510819494462,70.81428249558053L162.18872659513687,70.89272547666407L162.3095087287479,70.94004212847632L162.62230348502266,70.98656759646953L162.67185512958105,71.03660514873265L162.72914921860163,68.62883981571055L162.85302832999758,68.45586001683411L163.08685015275745,68.92287073890112L163.3779660645379,69.20883544657069L163.42596922020383,69.17083932609013L163.47706935365466,69.18963476608405L163.65359708739388,69.44960619072299L163.75115188761816,69.54298517853681L164.1165952662362,69.70361479096961L164.16150144411722,69.73198162545737L164.83973957901003,67.60215337891647L165.34764393573337,68.53906939799823L165.36777429133522,68.47924818241178L165.47926549159155,68.69006972443822L165.7006994032118,68.88485532125425L166.29686762680478,69.2501699768243L166.3851314936744,69.36091641432449L166.549271316274,69.42704780329701L166.6499230942832,65.98659461475587L166.71960509444344,66.13585819622722L166.97200878391266,67.4581772210163L167.44894336278702,67.90301549898368L167.91968398609163,68.3557077236426L168.2804818980323,68.64530029857997L168.49881883186765,68.79842331331497L169.19099336679244,67.3158799165858L169.32261492265067,67.4383783283738L169.34739074492984,67.44582703457263L169.93891350184546,67.95365126340268L169.96523781301713,67.97263967505978L170.1665413690355,68.0902752009356L170.29196896932388,68.1691041253455L170.38797528065575,68.21314025888364L170.70077003693052,65.6419279271463L171.0305981710222,66.29683515765373L171.99685523991053,67.3293300415096L172.02782501775954,67.35989675295765L172.34681372960407,67.56483265925704L172.61625079689026,65.41561076056632L172.84852413075765,65.66493014939762L172.87949390860663,65.71793946527373L172.884139375284,65.70246313788653L173.01576093114218,65.83009459591518L173.02040639781953,65.82266518688267L173.5763139102088,66.40100126143943L173.6165746214125,66.44916698856969L174.5596043569141,64.35588757503548L174.65096520156862,64.23663108718894L175.17435444721647,65.07733143500809L175.32455786978403,65.24454138115539L175.70858311511148,65.69696344548584L176.37443333886466,63.82409626563822L177.11615951834784,64.86946235942833L177.18429302961562,64.92843449969679L177.35772378556996,65.06337958376004L177.74174903089735,65.10982786308796L177.90743734238941,65.18394827891622L178.164486498536,65.40544115391663L178.36114458787705,63.130363136498545L178.5732875661426,63.78187406573397L178.66000294411978,64.13516658668779L178.70955458867815,64.21689008604541L178.81949730004203,64.36569053552513L179.40792307917278,64.43577784359286L179.54573859060073,64.38631920631929L179.5813538351271,64.37501106685683L180.0908066807429,64.74117479774488L180.45315308157603,62.60733274060976L180.55380485958523,62.814854467195815L181.20107321662903,63.516808189187046L181.41476468378704,63.667480463799635L181.5231589062585,63.752040646606034L181.63155312872993,63.85856100468256L181.81737179582382,63.91674196113196L181.88550530709162,63.9444526919649L182.0960997964647,62.924693937879056L182.18436366333432,62.05097613848943L182.3221791747623,61.71906487781622L182.40579757495456,61.51866380560159L182.5296766863505,61.69625562722808L182.70001046451995,62.384720629962885L182.93692926506466,62.62207577567689L183.04996895421345,62.61157811719977L183.34727882156375,62.84215995753607L183.4556730440352,62.92370978239684L183.5315489997652,62.97766465942256L184.35534509054818,61.321253794166296L185.0537135810428,61.93335990977994L185.21785340364247,62.15168804950419L185.22095038142734,62.14010974971325L185.63904238238862,62.35125934356712L186.25843793936835,60.18302973605296L186.69511180703907,60.9292704547445L186.73072705156537,60.923423413350065L186.98158225214215,61.16207146920739L187.14727056363424,61.24396864306186L187.23863140828874,61.28941346974125L187.2525678083208,61.27766149545346L187.36251051968466,61.3228361618044L187.4786471866184,61.446955535563134L187.60717176469169,61.589619486153666L187.72950238719517,61.72576099452863L187.88589976533254,61.78469454046446L187.91686954318152,59.541128795644L188.03455469900766,58.481965227936385L188.12281856587728,59.03488693445206L188.13985194369423,59.09219951841715L188.79641123409272,59.974658934148934L188.8273810119417,59.979463928562154L189.39103096879325,60.574877995310544L189.703825725068,60.72688177439909L189.75337736962635,60.75891507048732L189.83699576981863,57.19420742802323L189.97635977013906,57.998358942835694L190.27831510416667,58.66652332660374L190.3263182598326,58.75714281963407L190.4114851489173,58.76783344977434L190.46568226015305,58.793633761141805L190.48116714907752,58.76596162464148L190.78312248310513,59.06825173501626L191.17953563957212,59.47993748124895L191.26470252865684,59.568183422822145L191.93055275241002,57.054534538212025L192.44000559802586,58.27882395810458L192.52981795378793,58.28658141896449L193.10275884399414,58.80187365115968L193.26380168880885,58.90293291116815L193.28548053330317,58.93699240971978L193.31490182225969,58.93755202754302L193.3783898668501,58.932206712472876L193.4000687113444,58.94513581390608L193.42329604473113,58.94851281801175L193.44342640033298,58.95887539632463L193.5038174671385,58.96757841833414L193.70512102315692,59.079173931152354L193.97146111265818,56.73856273691763L194.23315573548211,57.689913036405414L194.50568978055318,57.808416934765546L194.64815075865852,57.930973238052516L194.75964195891484,57.94922835738954L194.78132080340916,57.96866060387197L195.43478311602277,58.24661698751949L195.52304698289237,58.32533012893147L195.71351111666362,55.33315011396235L195.9860451617347,56.45840647630986L196.14089405097963,56.41763156387947L196.30038840690187,56.70201390391094L196.81758369697997,57.30719233681634L197.8411348548889,55.965730523039625L197.9030744105869,55.970979352278164L197.9541745440377,56.26091927620928L198.2390965002484,56.04129822634174L198.90184974621667,56.54757868186631L199.11399272448222,56.702689304732075L199.90681903741626,54.98676597855048L200.12980143792896,55.2984345117559L200.13134992682137,55.29963093606763L200.22116228258344,55.404240874678635L200.53086006107333,55.4829347189243L200.6531906835768,55.59024626081988L201.0279249955495,55.74904264245244L201.40111081862977,55.91808581939995L201.59931739686328,53.183079139953634L201.65041753031414,53.52770723323057L201.9508243754493,53.73825861492857L202.04373370899623,53.90708952304658L202.21097050938076,54.10347678466701L202.26671610950893,54.19973105026226L202.29613739846548,54.24616003242387L202.44479233214062,54.31572631700101L203.15245175598994,54.74609172022976L203.21593980058034,54.7764461628483L203.35220682311586,54.812377486532796L203.69597135723964,52.97650297451719L203.93289015778433,53.3168663940378L204.22555455845728,53.83435850319326L204.26891224744583,53.93782990899149L205.12832358275517,54.303086673062595L205.42873042789037,51.513449715769426L205.48912149469587,52.09956254835244L205.7972707842933,52.66672556361097L206.44763611912197,53.148170566084005L206.66597305295733,53.24913334026088L206.86108265340596,53.325434335883074L207.09645296505823,53.322925704261706L207.4665418103536,50.8248496328704L207.94967034479777,51.408531022497314L208.2082679898368,51.51837049318057L208.2206559009764,51.52228781794315L208.76727248001097,52.04940921309141L209.194655414327,52.302298577691545L209.27672532562678,49.95402640842849L209.82953586023118,50.78440277226741L209.8481177269406,50.77849783937404L210.23059448337554,51.105044487810815L210.2414339056227,51.099988630235444L210.40557372822232,51.161758859620036L210.65488043990663,51.380665914333804L210.7942444402271,51.40499964106108L211.29595484138065,48.99972364249402L211.5607464419895,49.585682097746485L211.6366223977195,49.84189057495337L211.69546497563255,49.94817936703407L211.74811359797584,49.92728053591145L211.8069561758889,49.9660099487121L211.86734724269445,50.06762882654381L212.04697195421855,50.16347785164635L212.10736302102407,50.19282884161635L212.1677540878296,50.208691112329916L212.18943293232388,50.230863556429554L212.21575724349552,50.24863624660861L212.38299404388005,50.225151595199364L212.4666124440723,50.29743878022737L213.1262687122557,47.82217195942417L213.42048160182105,48.704168243164304L213.60010631334518,48.95215612751963L213.94077386968402,49.43504841746653L213.98568004756504,49.50999861144646L214.69953342698415,49.924540338294264L215.0974950723436,47.272955308841574L215.14240125022462,47.70326282057138L215.23685907266403,47.91703682904449L215.70759969596864,48.42206296875838L215.9677458299001,48.48676636742334L216.7559266761568,48.706406714457216L216.77915400954353,48.71426066114873L217.23905521060095,47.18636892357179L218.1108544570499,47.59786169814129L218.20376379059684,47.688249625175786L218.63424370269774,47.89770106839367L218.6357921915902,47.896504644081915L218.80767445865206,47.952273454741544L218.85103214764064,47.950845464433996L218.89748681441412,44.705698896199465L218.96097485900455,44.44835188617981L219.14059957052868,45.29825698233279L219.62992206054264,46.28320364838055L219.6949585940255,46.296306424310615L219.75070419415368,46.340844284173045L220.20286295074888,46.588465522368324L220.2508661064148,46.63913988111997L220.70457335190244,46.89695002313124L220.8485828189002,45.13683618608093L220.8671646856096,44.636962389774L221.02975601931678,45.170065906480886L221.5392088649326,45.54971835662536L222.37694135574765,45.945329563315L222.41410508916644,45.95706224043647L222.46520522261724,45.93919306442581L223.14189486861758,44.73063083508262L223.24409513551925,44.91476439609096L223.28745282450782,44.868972220417845L223.80619660347833,45.06433673222344L224.08337611522677,45.089635317266584L224.15925207095674,45.16973785465348L224.16389753763409,45.15941387067326L224.18093091545106,45.161227804307146L224.2490644267188,45.222284038537964L224.59747442751993,45.33160248573063L224.97995118395488,42.735477512276475L226.76690736584132,41.488031492802094L227.14319016670652,42.6987357076066L227.5272154120339,42.8957983700482L227.60928532333375,42.93913980559887L227.7780706126107,43.047570583140924L227.98401963530648,43.16435703369871L228.26894159151712,43.24604193872372L228.46714816975063,43.278248909308786L228.54921808105044,43.274466664710445L228.6142546145333,42.357040783610074L228.7830399038103,42.20798947096819L228.79387932605744,42.171768689788905L228.84343097061583,41.95562112985863L228.8929826151742,41.750106308569684L228.98744043761357,41.78177295849787L229.01531323767767,41.83989602344832L229.34978683844673,41.96220146357314L229.647096705797,42.14743496306164L229.8081395506117,42.146431510413095L229.90414586194356,42.2104402110906L230.17358292922972,42.20160210891686L230.49566861885918,42.292761922604086L230.9509243532393,41.27321543734777L231.01286390893725,41.09606745054657L231.21726444274054,41.34635169769376L231.3380465763516,41.44663907104953L231.35353146527606,41.417944184734324L231.37211333198545,41.4246981929457L231.38450124312507,41.43716416238726L231.42785893211365,41.35015323945845L231.5021863989512,41.45742618702138L231.56877142132655,41.551982301980615L231.7654295106676,41.55858193286144L232.00079982231986,41.6636550034641L232.15719720045723,41.65610981143368L232.3786311120775,41.62934464175032L232.38327657875485,41.63333915517819L232.52883453464509,40.23902240285591L232.76265635740492,40.21391678947589L233.3619215587828,40.45125263802356L233.40837622555625,40.53077626042091L233.70723458179899,40.70707517190411L233.80014391534593,40.680059139058585L233.83885613765716,40.64158058942007L234.5821308060328,38.568987738178976L234.59916418384975,38.665280598106875L234.87479520670573,39.07675407551005L234.91041045123205,39.16997868599333L234.95841360689798,39.18364107974665L235.1782990296258,39.21490248918212L235.19997787412007,39.260501693192055L236.15384703186882,39.74327820014105L236.4170901435852,38.52354291149959L236.78872747777305,38.88656120427777L236.8135033000522,38.91137736016299L237.02254930053286,39.03524587075961L237.23778925658334,38.91652970356995L237.41122001253763,38.9626499310705L237.68685103539363,39.09738274630422L237.736402679952,39.0847238051995L237.84789388020835,39.174436331412835L238.25050099224512,39.25797376440437L238.47812885943517,37.88723814932291L239.04952126074897,37.85964320148787L239.06965161635082,37.92218531752519L239.201273172209,37.95402564195024L239.46606477281782,38.04827300224838L239.7509867290285,38.0939686920899L239.7866019735548,38.099429790157956L239.79434441801706,38.080344892669245L239.82531419586607,38.06467559361886L239.98945401846566,38.117125291671755L240.5221341974682,36.87751392172254L240.96809899849362,37.2334115601293L241.3660606438531,37.35496441076771L241.88790140060848,37.538422570954936L241.9978441119724,37.61289033577691L242.1186262455834,37.67967782840424L242.60640024670494,36.523488108448674L242.6141426911672,36.503091003650326L242.63737002455395,36.61624958694031L243.1483713590622,36.78257186343694L243.1979230036206,36.83546539631516L243.50297531543308,36.86856003655089L243.85912776069642,36.99761948488708L243.98765233876972,37.048718381297704L244.01707362772623,37.08090605471651L244.1765679836485,35.51652337563178L244.2648318505181,35.608648047634915L244.60859638464186,35.93559993656436L244.90280927420721,35.96740166665677L245.34877407523263,36.22407327585529L245.39213176422118,36.200607921612374L245.52530180897182,36.20958110395031L246.115276076995,35.461642234622786L246.1493428326289,35.447651789042084L246.60924403368634,35.839017619141714L246.83377492309145,35.86568630299348L246.90500541214413,35.91819389254533L247.71951056957246,35.85567107367436L247.78145012527042,35.867249373465256L247.79383803641002,35.8586042429547L247.8279047920439,35.83928777947017L247.8433896809684,35.84799080147968L247.96107483679452,37.433909118175535L248.0137234591378,34.247310152550455L248.1484419927809,34.8666527055334L248.19644514844683,34.92687916161253L248.91958946122065,34.99086856512372L249.19367199518416,35.08994021700141L249.289678306516,35.152906870697734L249.6504762184567,35.15693997845824L249.6597671518114,35.14781241878973L250.59815142063565,34.57179200419114L250.6275727095922,34.57978103104688L250.68331830972036,34.66268165754991L250.83352173228792,34.62950982864891L251.13238008853065,34.7423596572778L251.1587043997023,34.74226317144621L251.16025288859473,34.736281049887566L251.62325106743705,34.768854666632734L251.67899666756523,34.796912746459384L252.01811573501163,33.6658479370501L252.23645266884697,34.083515804841454L252.69170840322707,34.22741477407635L252.93327267044916,34.31926928575106L253.1547065820694,34.34354512097934L253.28787662682004,34.364887786927284L253.30336151574454,34.38184999612099L253.52169844957987,34.39925604014002L253.59138044974011,34.408113439480076L253.63009267205132,34.42177583323337L253.82520227249992,33.896275400055856L253.93359649497137,34.254527292753465L254.1952911177953,33.973271093665545L254.3021368513743,34.01107424248292L254.39349769602882,33.975663942288975L254.5777678742303,33.89322644777758L254.769780496894,34.05968380443849L254.8022987636354,34.05455075819782L255.93424414401585,34.028731149664054L256.44834245630904,33.872443399652894L256.46537583412595,33.93548724201449L256.6016428566615,34.062578379386196L256.662033923467,34.13976704465904L256.7255219680574,34.054936701524184L256.9438589018928,33.93475394969437L257.5322846810235,33.905460851223324L257.6670032146666,33.95609661564234L258.126904415724,33.53993392682378L259.0559977511936,33.841471447712166L259.14890708474053,33.80988198644923L259.16439197366503,33.83259475120576L259.3579530852212,33.82854234627894L260.24368873170215,33.347348206968036L260.4387983321508,33.42117916530154L260.59209873250325,33.44317793490427L260.8026932218764,33.43381880923994L260.99160886675514,33.4683221426169L261.08142122251724,33.48379847000413L261.18826695609624,33.50209218367377L261.194460911666,33.49502942080133L261.3508582898034,33.511702172500236L261.48402833455407,33.57875982545602L261.5072556679408,33.56172042759704L262.3790549143897,33.741531423350125L262.5540341592365,33.65172241130517L262.75224073747,33.64429300227266L262.77546807085673,33.645759586912874L262.88386229332815,33.632058598826916L263.0665839826372,33.67213881326984L263.1455569161521,33.622795958994175L263.2524026497311,33.58549453650107L263.2585966053009,33.58175088623534L263.45370620574954,33.55249638209693" fill="none"></path></g></g></g></g></g></g><g transform="translate(51, 178)" clip-path="url(#clip_1)"><clipPath id="clip_1"><rect width="278" height="21"></rect></clipPath><g><g><line x1="0" y1="0" x2="0" y2="5" style="visibility: inherit;" fill="rgb(0, 0, 0)" stroke="rgb(204, 204, 204)" stroke-width="1px"></line><line x1="30.96977784898546" y1="0" x2="30.96977784898546" y2="5" style="visibility: inherit;" fill="rgb(0, 0, 0)" stroke="rgb(204, 204, 204)" stroke-width="1px"></line><line x1="61.93955569797092" y1="0" x2="61.93955569797092" y2="5" style="visibility: inherit;" fill="rgb(0, 0, 0)" stroke="rgb(204, 204, 204)" stroke-width="1px"></line><line x1="92.90933354695638" y1="0" x2="92.90933354695638" y2="5" style="visibility: inherit;" fill="rgb(0, 0, 0)" stroke="rgb(204, 204, 204)" stroke-width="1px"></line><line x1="123.87911139594183" y1="0" x2="123.87911139594183" y2="5" style="visibility: inherit;" fill="rgb(0, 0, 0)" stroke="rgb(204, 204, 204)" stroke-width="1px"></line><line x1="154.8488892449273" y1="0" x2="154.8488892449273" y2="5" style="visibility: inherit;" fill="rgb(0, 0, 0)" stroke="rgb(204, 204, 204)" stroke-width="1px"></line><line x1="185.81866709391275" y1="0" x2="185.81866709391275" y2="5" style="visibility: inherit;" fill="rgb(0, 0, 0)" stroke="rgb(204, 204, 204)" stroke-width="1px"></line><line x1="216.78844494289822" y1="0" x2="216.78844494289822" y2="5" style="visibility: inherit;" fill="rgb(0, 0, 0)" stroke="rgb(204, 204, 204)" stroke-width="1px"></line><line x1="247.75822279188367" y1="0" x2="247.75822279188367" y2="5" style="visibility: inherit;" fill="rgb(0, 0, 0)" stroke="rgb(204, 204, 204)" stroke-width="1px"></line><line x1="278.72800064086914" y1="0" x2="278.72800064086914" y2="5" style="visibility: inherit;" fill="rgb(0, 0, 0)" stroke="rgb(204, 204, 204)" stroke-width="1px"></line></g><g transform="translate(0, 8)"><text style="text-anchor: middle; visibility: hidden; font-family: &quot;Helvetica Neue&quot;, sans-serif; font-size: 12px; font-weight: 200;" x="0" y="0" dx="0em" dy="0.95em" fill="rgb(50, 49, 63)" stroke="none" stroke-width="1px">-20k</text><text style="text-anchor: middle; visibility: inherit; font-family: &quot;Helvetica Neue&quot;, sans-serif; font-size: 12px; font-weight: 200;" x="30.96977784898546" y="0" dx="0em" dy="0.95em" fill="rgb(50, 49, 63)" stroke="none" stroke-width="1px">0</text><text style="text-anchor: middle; visibility: hidden; font-family: &quot;Helvetica Neue&quot;, sans-serif; font-size: 12px; font-weight: 200;" x="61.93955569797092" y="0" dx="0em" dy="0.95em" fill="rgb(50, 49, 63)" stroke="none" stroke-width="1px">20k</text><text style="text-anchor: middle; visibility: inherit; font-family: &quot;Helvetica Neue&quot;, sans-serif; font-size: 12px; font-weight: 200;" x="92.90933354695638" y="0" dx="0em" dy="0.95em" fill="rgb(50, 49, 63)" stroke="none" stroke-width="1px">40k</text><text style="text-anchor: middle; visibility: hidden; font-family: &quot;Helvetica Neue&quot;, sans-serif; font-size: 12px; font-weight: 200;" x="123.87911139594183" y="0" dx="0em" dy="0.95em" fill="rgb(50, 49, 63)" stroke="none" stroke-width="1px">60k</text><text style="text-anchor: middle; visibility: inherit; font-family: &quot;Helvetica Neue&quot;, sans-serif; font-size: 12px; font-weight: 200;" x="154.8488892449273" y="0" dx="0em" dy="0.95em" fill="rgb(50, 49, 63)" stroke="none" stroke-width="1px">80k</text><text style="text-anchor: middle; visibility: hidden; font-family: &quot;Helvetica Neue&quot;, sans-serif; font-size: 12px; font-weight: 200;" x="185.81866709391275" y="0" dx="0em" dy="0.95em" fill="rgb(50, 49, 63)" stroke="none" stroke-width="1px">100k</text><text style="text-anchor: middle; visibility: inherit; font-family: &quot;Helvetica Neue&quot;, sans-serif; font-size: 12px; font-weight: 200;" x="216.78844494289822" y="0" dx="0em" dy="0.95em" fill="rgb(50, 49, 63)" stroke="none" stroke-width="1px">120k</text><text style="text-anchor: middle; visibility: hidden; font-family: &quot;Helvetica Neue&quot;, sans-serif; font-size: 12px; font-weight: 200;" x="247.75822279188367" y="0" dx="0em" dy="0.95em" fill="rgb(50, 49, 63)" stroke="none" stroke-width="1px">140k</text><text style="text-anchor: middle; visibility: hidden; font-family: &quot;Helvetica Neue&quot;, sans-serif; font-size: 12px; font-weight: 200;" x="278.72800064086914" y="0" dx="0em" dy="0.95em" fill="rgb(50, 49, 63)" stroke="none" stroke-width="1px">160k</text></g><line x1="0" y1="0" x2="278.72800064086914" y2="0" fill="rgb(0, 0, 0)" stroke="rgb(204, 204, 204)" stroke-width="1px"></line></g></g></g></g></svg>